<svg xmlns="http://www.w3.org/2000/svg" xmlns:xlink="http://www.w3.org/1999/xlink" width="93.585" height="40" viewBox="0 0 93.585 40">
  <defs>
    <clipPath id="clip-path">
      <rect id="digital-bangladesh" width="93.585" height="40" transform="translate(-4289.792 657)" fill="#fff"/>
    </clipPath>
  </defs>
  <g id="Mask_Group_8" data-name="Mask Group 8" transform="translate(4289.792 -657)" clip-path="url(#clip-path)">
    <g id="Digital_Bangladesh_Logo" data-name="Digital Bangladesh Logo" transform="translate(-4280.255 656.89)">
      <g id="Group_567" data-name="Group 567">
        <path id="Path_369" data-name="Path 369" d="M1.205,33.218h0L.164,31.148H2.235Z" fill="#1788a1"/>
        <path id="Path_370" data-name="Path 370" d="M3.276,29.077h0l1.03,2.071H2.235Z" fill="#a21f60"/>
        <path id="Path_371" data-name="Path 371" d="M5.336,29.077h0l1.041,2.071H4.306Z" fill="#e6332e"/>
        <path id="Path_372" data-name="Path 372" d="M7.406,33.218h0l-1.03-2.071H8.447Z" fill="#e65d25"/>
        <path id="Path_373" data-name="Path 373" d="M9.477,33.218h0l-1.03-2.071h2.071Z" fill="#f4b01c"/>
        <path id="Path_374" data-name="Path 374" d="M11.548,29.077h0l1.03,2.071h-2.06Z" fill="#099146"/>
        <path id="Path_375" data-name="Path 375" d="M13.618,33.218h0l-1.041-2.071h2.071Z" fill="#e6e41b"/>
        <path id="Path_376" data-name="Path 376" d="M15.689,29.077h0l1.03,2.071H14.648Z" fill="#e38625"/>
        <path id="Path_377" data-name="Path 377" d="M17.749,29.077h0l1.041,2.071H16.719Z" fill="#d44c27"/>
        <path id="Path_378" data-name="Path 378" d="M19.819,29.077h0l1.041,2.071H18.789Z" fill="#cb2034"/>
        <path id="Path_379" data-name="Path 379" d="M21.89,29.077h0l1.041,2.071H20.86Z" fill="#d21d58"/>
        <path id="Path_380" data-name="Path 380" d="M23.961,29.077h0l1.03,2.071h-2.06Z" fill="#a21f60"/>
        <path id="Path_381" data-name="Path 381" d="M26.031,29.077h0l1.03,2.071H24.99Z" fill="#48307e"/>
        <path id="Path_382" data-name="Path 382" d="M28.1,33.218h0l-1.041-2.071h2.071Z" fill="#1bb2d1"/>
        <path id="Path_383" data-name="Path 383" d="M30.162,29.077h0L31.2,31.148H29.132Z" fill="#124d6e"/>
        <path id="Path_384" data-name="Path 384" d="M32.232,29.077h0l1.03,2.071H31.2Z" fill="#a21f60"/>
        <path id="Path_385" data-name="Path 385" d="M34.3,33.218h0l-1.041-2.071h2.071Z" fill="#cc1e5a"/>
        <path id="Path_386" data-name="Path 386" d="M34.3,29.077h0l1.03,2.071H33.262Z" fill="#e6332e"/>
        <path id="Path_387" data-name="Path 387" d="M36.374,29.077h0l1.03,2.071H35.333Z" fill="#f3d214"/>
        <path id="Path_388" data-name="Path 388" d="M38.444,33.218h0L37.4,31.148h2.071Z" fill="#f4b01c"/>
        <path id="Path_389" data-name="Path 389" d="M35.333,27.006h0L34.3,29.077h2.071Z" fill="#a21f60"/>
        <path id="Path_390" data-name="Path 390" d="M33.262,31.148h0L34.3,29.077H32.232Z" fill="#cc1e5a"/>
        <path id="Path_391" data-name="Path 391" d="M33.262,27.006h0l-1.03,2.071H34.3Z" fill="#e6332e"/>
        <path id="Path_392" data-name="Path 392" d="M31.2,31.148h0l1.03-2.071H30.162Z" fill="#e6332e"/>
        <path id="Path_393" data-name="Path 393" d="M31.2,27.006h0l-1.041,2.071h2.071Z" fill="#e65d25"/>
        <path id="Path_394" data-name="Path 394" d="M29.132,31.148h0l1.03-2.071H28.1Z" fill="#f4b01c"/>
        <path id="Path_395" data-name="Path 395" d="M29.132,27.006h0L28.1,29.077h2.06Z" fill="#f4b01c"/>
        <path id="Path_396" data-name="Path 396" d="M27.061,31.148h0L28.1,29.077H26.031Z" fill="#124d6e"/>
        <path id="Path_397" data-name="Path 397" d="M27.061,27.006h0l-1.03,2.071H28.1Z" fill="#6abd46"/>
        <path id="Path_398" data-name="Path 398" d="M24.99,31.148h0l1.041-2.071H23.961Z" fill="#e6e41b"/>
        <path id="Path_399" data-name="Path 399" d="M24.99,27.006h0l-1.03,2.071h2.071Z" fill="#f4b11b"/>
        <path id="Path_400" data-name="Path 400" d="M22.931,31.148h0l1.03-2.071H21.89Z" fill="#e65d25"/>
        <path id="Path_401" data-name="Path 401" d="M22.931,27.006h0L21.89,29.077h2.071Z" fill="#f4b01c"/>
        <path id="Path_402" data-name="Path 402" d="M20.86,31.148h0l1.03-2.071H19.819Z" fill="#e6332e"/>
        <path id="Path_403" data-name="Path 403" d="M20.86,27.006h0l-1.041,2.071H21.89Z" fill="#a21f60"/>
        <path id="Path_404" data-name="Path 404" d="M18.789,31.148h0l1.03-2.071H17.749Z" fill="#e95249"/>
        <path id="Path_405" data-name="Path 405" d="M18.789,27.006h0l-1.041,2.071h2.071Z" fill="#e65d25"/>
        <path id="Path_406" data-name="Path 406" d="M16.719,31.148h0l1.03-2.071h-2.06Z" fill="#a21f60"/>
        <path id="Path_407" data-name="Path 407" d="M16.719,27.006h0l-1.03,2.071h2.06Z" fill="#e38625"/>
        <path id="Path_408" data-name="Path 408" d="M14.648,31.148h0l1.041-2.071H13.618Z" fill="#6c2d86"/>
        <path id="Path_409" data-name="Path 409" d="M14.648,27.006h0l-1.03,2.071h2.071Z" fill="#a21f60"/>
        <path id="Path_410" data-name="Path 410" d="M12.577,31.148h0l1.041-2.071H11.548Z" fill="#124d6e"/>
        <path id="Path_411" data-name="Path 411" d="M12.577,27.006h0l-1.03,2.071h2.071Z" fill="#a21f60"/>
        <path id="Path_412" data-name="Path 412" d="M10.518,31.148h0l1.03-2.071H9.477Z" fill="#1bb2d1"/>
        <path id="Path_413" data-name="Path 413" d="M10.518,27.006h0L9.477,29.077h2.071Z" fill="#088c9b"/>
        <path id="Path_414" data-name="Path 414" d="M8.447,31.148h0l1.03-2.071H7.406Z" fill="#088c9b"/>
        <path id="Path_415" data-name="Path 415" d="M8.447,27.006h0L7.406,29.077H9.477Z" fill="#1bb2d1"/>
        <path id="Path_416" data-name="Path 416" d="M6.376,31.148h0l1.03-2.071H5.336Z" fill="#48307e"/>
        <path id="Path_417" data-name="Path 417" d="M6.376,27.006h0L5.336,29.077H7.406Z" fill="#a21f60"/>
        <path id="Path_418" data-name="Path 418" d="M4.306,27.006h0l-1.03,2.071h2.06Z" fill="#e6332e"/>
        <path id="Path_419" data-name="Path 419" d="M30.162,24.936h0L31.2,27.006H29.132Z" fill="#e65d25"/>
        <path id="Path_420" data-name="Path 420" d="M30.162,29.077h0l-1.03-2.071H31.2Z" fill="#f3d214"/>
        <path id="Path_421" data-name="Path 421" d="M28.1,24.936h0l1.03,2.071H27.061Z" fill="#f4b01c"/>
        <path id="Path_422" data-name="Path 422" d="M28.1,29.077h0l-1.041-2.071h2.071Z" fill="#e6e41b"/>
        <path id="Path_423" data-name="Path 423" d="M26.031,24.936h0l1.03,2.071H24.99Z" fill="#6abd46"/>
        <path id="Path_424" data-name="Path 424" d="M26.031,29.077h0L24.99,27.006h2.071Z" fill="#099146"/>
        <path id="Path_425" data-name="Path 425" d="M23.961,24.936h0l1.03,2.071h-2.06Z" fill="#e6e41b"/>
        <path id="Path_426" data-name="Path 426" d="M23.961,29.077h0l-1.03-2.071h2.06Z" fill="#1bb2d1"/>
        <path id="Path_427" data-name="Path 427" d="M21.89,24.936h0l1.041,2.071H20.86Z" fill="#e65d25"/>
        <path id="Path_428" data-name="Path 428" d="M21.89,29.077h0l-1.03-2.071h2.071Z" fill="#e38625"/>
        <path id="Path_429" data-name="Path 429" d="M19.819,24.936h0l1.041,2.071H18.789Z" fill="#6c2d86"/>
        <path id="Path_430" data-name="Path 430" d="M19.819,29.077h0l-1.03-2.071H20.86Z" fill="#d44c27"/>
        <path id="Path_431" data-name="Path 431" d="M17.749,24.936h0l1.041,2.071H16.719Z" fill="#e95249"/>
        <path id="Path_432" data-name="Path 432" d="M17.749,29.077h0l-1.03-2.071h2.071Z" fill="#cb2034"/>
        <path id="Path_433" data-name="Path 433" d="M15.689,24.936h0l1.03,2.071H14.648Z" fill="#a21f60"/>
        <path id="Path_434" data-name="Path 434" d="M15.689,29.077h0l-1.041-2.071h2.071Z" fill="#d21d58"/>
        <path id="Path_435" data-name="Path 435" d="M13.618,24.936h0l1.03,2.071H12.577Z" fill="#6c2d86"/>
        <path id="Path_436" data-name="Path 436" d="M13.618,29.077h0l-1.041-2.071h2.071Z" fill="#d44c27"/>
        <path id="Path_437" data-name="Path 437" d="M11.548,24.936h0l1.03,2.071h-2.06Z" fill="#124d6e"/>
        <path id="Path_438" data-name="Path 438" d="M11.548,29.077h0l-1.03-2.071h2.06Z" fill="#48307e"/>
        <path id="Path_439" data-name="Path 439" d="M9.477,24.936h0l1.041,2.071H8.447Z" fill="#1bb2d1"/>
        <path id="Path_440" data-name="Path 440" d="M9.477,29.077h0l-1.03-2.071h2.071Z" fill="#1a6484"/>
        <path id="Path_441" data-name="Path 441" d="M7.406,29.077h0l-1.03-2.071H8.447Z" fill="#124d6e"/>
        <path id="Path_442" data-name="Path 442" d="M8.447,27.006h0L7.406,24.936H9.477Z" fill="#e65d25"/>
        <path id="Path_443" data-name="Path 443" d="M10.518,27.006h0L9.477,24.936h2.071Z" fill="#f4b01c"/>
        <path id="Path_444" data-name="Path 444" d="M10.518,22.865h0l1.03,2.071H9.477Z" fill="#e6e41b"/>
        <path id="Path_445" data-name="Path 445" d="M12.577,27.006h0l-1.03-2.071h2.071Z" fill="#6abd46"/>
        <path id="Path_446" data-name="Path 446" d="M12.577,22.865h0l1.041,2.071H11.548Z" fill="#099146"/>
        <path id="Path_447" data-name="Path 447" d="M14.648,27.006h0l-1.03-2.071h2.071Z" fill="#e6e41b"/>
        <path id="Path_448" data-name="Path 448" d="M14.648,22.865h0l1.041,2.071H13.618Z" fill="#e38625"/>
        <path id="Path_449" data-name="Path 449" d="M16.719,27.006h0l-1.03-2.071h2.06Z" fill="#e65d25"/>
        <path id="Path_450" data-name="Path 450" d="M16.719,22.865h0l1.03,2.071h-2.06Z" fill="#f4b11b"/>
        <path id="Path_451" data-name="Path 451" d="M18.789,27.006h0l-1.041-2.071h2.071Z" fill="#e6332e"/>
        <path id="Path_452" data-name="Path 452" d="M18.789,22.865h0l1.03,2.071H17.749Z" fill="#a21f60"/>
        <path id="Path_453" data-name="Path 453" d="M20.86,27.006h0l-1.041-2.071H21.89Z" fill="#f4b01c"/>
        <path id="Path_454" data-name="Path 454" d="M20.86,22.865h0l1.03,2.071H19.819Z" fill="#e65d25"/>
        <path id="Path_455" data-name="Path 455" d="M22.931,27.006h0L21.89,24.936h2.071Z" fill="#a21f60"/>
        <path id="Path_456" data-name="Path 456" d="M22.931,22.865h0l1.03,2.071H21.89Z" fill="#e38625"/>
        <path id="Path_457" data-name="Path 457" d="M24.99,27.006h0l-1.03-2.071h2.071Z" fill="#6c2d86"/>
        <path id="Path_458" data-name="Path 458" d="M24.99,22.865h0l1.041,2.071H23.961Z" fill="#e65d25"/>
        <path id="Path_459" data-name="Path 459" d="M27.061,27.006h0l-1.03-2.071H28.1Z" fill="#124d6e"/>
        <path id="Path_460" data-name="Path 460" d="M27.061,22.865h0L28.1,24.936H26.031Z" fill="#088c9b"/>
        <path id="Path_461" data-name="Path 461" d="M29.132,27.006h0L28.1,24.936h2.06Z" fill="#1bb2d1"/>
        <path id="Path_462" data-name="Path 462" d="M29.132,22.865h0l1.03,2.071H28.1Z" fill="#1a6484"/>
        <path id="Path_463" data-name="Path 463" d="M31.2,27.006h0l-1.041-2.071h2.071Z" fill="#088c9b"/>
        <path id="Path_464" data-name="Path 464" d="M13.618,20.794h0l-1.041,2.071h2.071Z" fill="#e6e41b"/>
        <path id="Path_465" data-name="Path 465" d="M13.618,24.936h0l1.03-2.071H12.577Z" fill="#f4b11b"/>
        <path id="Path_466" data-name="Path 466" d="M15.689,20.794h0l-1.041,2.071h2.071Z" fill="#e65d25"/>
        <path id="Path_467" data-name="Path 467" d="M15.689,24.936h0l1.03-2.071H14.648Z" fill="#e6332e"/>
        <path id="Path_468" data-name="Path 468" d="M17.749,20.794h0l-1.03,2.071h2.071Z" fill="#e6332e"/>
        <path id="Path_469" data-name="Path 469" d="M17.749,24.936h0l1.041-2.071H16.719Z" fill="#d44c27"/>
        <path id="Path_470" data-name="Path 470" d="M19.819,20.794h0l-1.03,2.071H20.86Z" fill="#e95249"/>
        <path id="Path_471" data-name="Path 471" d="M19.819,24.936h0l1.041-2.071H18.789Z" fill="#cb2034"/>
        <path id="Path_472" data-name="Path 472" d="M21.89,20.794h0l-1.03,2.071h2.071Z" fill="#a21f60"/>
        <path id="Path_473" data-name="Path 473" d="M21.89,24.936h0l1.041-2.071H20.86Z" fill="#d21d58"/>
        <path id="Path_474" data-name="Path 474" d="M23.961,20.794h0l-1.03,2.071h2.06Z" fill="#6c2d86"/>
        <path id="Path_475" data-name="Path 475" d="M23.961,24.936h0l1.03-2.071h-2.06Z" fill="#a21f60"/>
        <path id="Path_476" data-name="Path 476" d="M26.031,20.794h0L24.99,22.865h2.071Z" fill="#124d6e"/>
        <path id="Path_477" data-name="Path 477" d="M26.031,24.936h0l1.03-2.071H24.99Z" fill="#48307e"/>
        <path id="Path_478" data-name="Path 478" d="M17.749,16.664h0l-1.03-2.071h2.071Z" fill="#e6332e"/>
        <path id="Path_479" data-name="Path 479" d="M17.749,12.523h0l1.041,2.071H16.719Z" fill="#d44c27"/>
        <path id="Path_480" data-name="Path 480" d="M19.819,16.664h0l-1.03-2.071H20.86Z" fill="#e95249"/>
        <path id="Path_481" data-name="Path 481" d="M19.819,12.523h0l1.041,2.071H18.789Z" fill="#cb2034"/>
        <path id="Path_482" data-name="Path 482" d="M21.89,16.664h0l-1.03-2.071h2.071Z" fill="#a21f60"/>
        <path id="Path_483" data-name="Path 483" d="M21.89,12.523h0l1.041,2.071H20.86Z" fill="#d53d6a"/>
        <path id="Path_484" data-name="Path 484" d="M23.961,16.664h0l-1.03-2.071h2.06Z" fill="#6c2d86"/>
        <path id="Path_485" data-name="Path 485" d="M16.719,14.593h0l1.03-2.071h-2.06Z" fill="#a21f60"/>
        <path id="Path_486" data-name="Path 486" d="M18.789,10.452h0l-1.041,2.071h2.071Z" fill="#d21d58"/>
        <path id="Path_487" data-name="Path 487" d="M18.789,14.593h0l1.03-2.071H17.749Z" fill="#e38625"/>
        <path id="Path_488" data-name="Path 488" d="M20.86,10.452h0l-1.041,2.071H21.89Z" fill="#e95249"/>
        <path id="Path_489" data-name="Path 489" d="M20.86,14.593h0l1.03-2.071H19.819Z" fill="#6c2d86"/>
        <path id="Path_490" data-name="Path 490" d="M22.92,14.593h0l1.041-2.071H21.89Z" fill="#d21d58"/>
        <path id="Path_491" data-name="Path 491" d="M27.061,22.865h0L28.1,20.794H26.031Z" fill="#6abd46"/>
        <path id="Path_492" data-name="Path 492" d="M24.99,22.865h0l1.041-2.071H23.961Z" fill="#e6e41b"/>
        <path id="Path_493" data-name="Path 493" d="M24.99,18.735h0l-1.03,2.06h2.071Z" fill="#f4b11b"/>
        <path id="Path_494" data-name="Path 494" d="M22.931,22.865h0l1.03-2.071H21.89Z" fill="#e65d25"/>
        <path id="Path_495" data-name="Path 495" d="M22.931,18.735h0l-1.041,2.06h2.071Z" fill="#e38625"/>
        <path id="Path_496" data-name="Path 496" d="M20.86,22.865h0l1.03-2.071H19.819Z" fill="#e6332e"/>
        <path id="Path_497" data-name="Path 497" d="M20.86,18.735h0l-1.041,2.06H21.89Z" fill="#d44c27"/>
        <path id="Path_498" data-name="Path 498" d="M18.789,22.865h0l1.03-2.071H17.749Z" fill="#e38625"/>
        <path id="Path_499" data-name="Path 499" d="M18.789,18.735h0l-1.041,2.06h2.071Z" fill="#cb2034"/>
        <path id="Path_500" data-name="Path 500" d="M16.719,22.865h0l1.03-2.071h-2.06Z" fill="#a21f60"/>
        <path id="Path_501" data-name="Path 501" d="M16.719,18.735h0l-1.03,2.06h2.06Z" fill="#d21d58"/>
        <path id="Path_502" data-name="Path 502" d="M14.648,22.865h0l1.041-2.071H13.618Z" fill="#6c2d86"/>
        <path id="Path_503" data-name="Path 503" d="M14.648,18.735h0l-1.03,2.06h2.071Z" fill="#a21f60"/>
        <path id="Path_504" data-name="Path 504" d="M12.577,22.865h0l1.041-2.071H11.548Z" fill="#124d6e"/>
        <path id="Path_505" data-name="Path 505" d="M13.618,20.794h0l1.03-2.06H12.577Z" fill="#f4b11b"/>
        <path id="Path_506" data-name="Path 506" d="M15.689,20.794h0l1.03-2.06H14.648Z" fill="#e38625"/>
        <path id="Path_507" data-name="Path 507" d="M17.749,16.664h0l-1.03,2.071h2.071Z" fill="#e6332e"/>
        <path id="Path_508" data-name="Path 508" d="M17.749,20.794h0l1.041-2.06H16.719Z" fill="#d44c27"/>
        <path id="Path_509" data-name="Path 509" d="M19.819,16.664h0l-1.03,2.071H20.86Z" fill="#e95249"/>
        <path id="Path_510" data-name="Path 510" d="M19.819,20.794h0l1.041-2.06H18.789Z" fill="#e6332e"/>
        <path id="Path_511" data-name="Path 511" d="M21.89,16.664h0l-1.03,2.071h2.071Z" fill="#a21f60"/>
        <path id="Path_512" data-name="Path 512" d="M21.89,20.794h0l1.041-2.06H20.86Z" fill="#d21d58"/>
        <path id="Path_513" data-name="Path 513" d="M23.961,16.664h0l-1.03,2.071h2.06Z" fill="#6c2d86"/>
        <path id="Path_514" data-name="Path 514" d="M23.961,20.794h0l1.03-2.06h-2.06Z" fill="#a21f60"/>
        <path id="Path_515" data-name="Path 515" d="M26.031,20.794h0l1.03-2.06H24.99Z" fill="#48307e"/>
        <path id="Path_516" data-name="Path 516" d="M14.648,14.593h0l1.041,2.071H13.618Z" fill="#f4b11b"/>
        <path id="Path_517" data-name="Path 517" d="M27.061,14.593h0L28.1,16.664H26.031Z" fill="#f4b11b"/>
        <path id="Path_518" data-name="Path 518" d="M16.719,18.735h0l-1.03-2.071h2.06Z" fill="#e65d25"/>
        <path id="Path_519" data-name="Path 519" d="M16.719,14.593h0l1.03,2.071h-2.06Z" fill="#e38625"/>
        <path id="Path_520" data-name="Path 520" d="M18.789,18.735h0l-1.041-2.071h2.071Z" fill="#e38625"/>
        <path id="Path_521" data-name="Path 521" d="M18.789,14.593h0l1.03,2.071H17.749Z" fill="#d44c27"/>
        <path id="Path_522" data-name="Path 522" d="M20.86,18.735h0l-1.041-2.071H21.89Z" fill="#d21d58"/>
        <path id="Path_523" data-name="Path 523" d="M20.86,14.593h0l1.03,2.071H19.819Z" fill="#cb2034"/>
        <path id="Path_524" data-name="Path 524" d="M22.931,18.735h0L21.89,16.664h2.071Z" fill="#d53d6a"/>
        <path id="Path_525" data-name="Path 525" d="M22.931,14.593h0l1.03,2.071H21.89Z" fill="#d21d58"/>
        <path id="Path_526" data-name="Path 526" d="M17.749,12.523h0l-1.03-2.06h2.071Z" fill="#e6332e"/>
        <path id="Path_527" data-name="Path 527" d="M16.719,10.463h0l1.03,2.06h-2.06Z" fill="#d44c27"/>
        <path id="Path_528" data-name="Path 528" d="M19.819,12.523h0l-1.03-2.06H20.86Z" fill="#ec774f"/>
        <path id="Path_529" data-name="Path 529" d="M19.819,8.392h0l1.041,2.071H18.789Z" fill="#cb2034"/>
        <path id="Path_530" data-name="Path 530" d="M21.89,12.523h0l-1.03-2.06h2.071Z" fill="#a21f60"/>
        <path id="Path_531" data-name="Path 531" d="M21.89,8.392h0l1.041,2.071H20.86Z" fill="#d21d58"/>
        <path id="Path_532" data-name="Path 532" d="M20.86,10.463h0l1.03-2.071H19.819Z" fill="#e6332e"/>
        <path id="Path_533" data-name="Path 533" d="M20.86,6.322h0L19.819,8.392H21.89Z" fill="#d44c27"/>
        <path id="Path_534" data-name="Path 534" d="M18.789,10.463h0l1.03-2.071H17.749Z" fill="#e95249"/>
        <path id="Path_535" data-name="Path 535" d="M18.789,6.322h0L17.749,8.392h2.071Z" fill="#cb2034"/>
        <path id="Path_536" data-name="Path 536" d="M19.819,4.251h0L20.86,6.322H18.789Z" fill="#d31b65"/>
        <path id="Path_537" data-name="Path 537" d="M19.819,8.392h0l-1.03-2.071H20.86Z" fill="#e38625"/>
        <path id="Path_538" data-name="Path 538" d="M18.789,6.322h0L17.749,4.251h2.071Z" fill="#e6332e"/>
        <path id="Path_539" data-name="Path 539" d="M20.86,6.322h0L19.819,4.251H21.89Z" fill="#e95249"/>
        <path id="Path_540" data-name="Path 540" d="M19.819.11h0L18.789,2.18H20.86Z" fill="#e95249"/>
        <path id="Path_541" data-name="Path 541" d="M19.819,4.251h0L20.86,2.18H18.789Z" fill="#a21f60"/>
      </g>
      <g id="Group_568" data-name="Group 568">
        <path id="Path_542" data-name="Path 542" d="M36.308,22.438a1.154,1.154,0,0,1-.3.427,1.576,1.576,0,0,1-.46.263,1.955,1.955,0,0,1-.581.088H33.043V18.439h1.852a1.553,1.553,0,0,1,1.063.351,1.2,1.2,0,0,1,.383.964,1.251,1.251,0,0,1-.055.362,1.233,1.233,0,0,1-.142.3,1,1,0,0,1-.208.219.743.743,0,0,1-.241.131.971.971,0,0,1,.274.153,1.145,1.145,0,0,1,.23.23,1.239,1.239,0,0,1,.164.318,1.165,1.165,0,0,1,.066.405A1.6,1.6,0,0,1,36.308,22.438Zm-.9-3.188a.833.833,0,0,0-.559-.175H33.777v1.369h1.074a.833.833,0,0,0,.559-.175.631.631,0,0,0,.219-.515A.658.658,0,0,0,35.409,19.25ZM35.5,21.3a.793.793,0,0,0-.581-.2H33.777v1.457h1.139a.754.754,0,0,0,.581-.208.718.718,0,0,0,.208-.526A.764.764,0,0,0,35.5,21.3Z" fill="#231f20"/>
        <path id="Path_543" data-name="Path 543" d="M40.142,23.2l-.329-.964H37.929L37.6,23.2h-.767l1.753-4.777h.581L40.92,23.2h-.778Zm-1.26-3.692-.745,2.125h1.468Z" fill="#231f20"/>
        <path id="Path_544" data-name="Path 544" d="M44.415,23.2l-2.2-3.363V23.2H41.49V18.428h.668l2.2,3.353V18.428h.723V23.2h-.668Z" fill="#231f20"/>
        <path id="Path_545" data-name="Path 545" d="M49.422,22.131a1.578,1.578,0,0,1-.329.57,1.661,1.661,0,0,1-.6.416,1.914,1.914,0,0,1-.712.131,1.761,1.761,0,0,1-.69-.131,1.742,1.742,0,0,1-.57-.383,1.258,1.258,0,0,1-.274-.373,1.869,1.869,0,0,1-.142-.416,2.4,2.4,0,0,1-.044-.5c-.011-.186-.011-.394-.011-.614s0-.438.011-.624a3.455,3.455,0,0,1,.044-.5,1.781,1.781,0,0,1,.142-.427,1.415,1.415,0,0,1,.274-.372,1.682,1.682,0,0,1,1.249-.515,1.877,1.877,0,0,1,.679.121,1.632,1.632,0,0,1,.515.318,1.653,1.653,0,0,1,.351.471,2,2,0,0,1,.186.581h-.734a1.1,1.1,0,0,0-.351-.614.991.991,0,0,0-.657-.219.939.939,0,0,0-.394.077.9.9,0,0,0-.449.427,1.345,1.345,0,0,0-.088.274,3.274,3.274,0,0,0-.044.405c-.011.153-.011.362-.011.6s.011.438.011.6a3.275,3.275,0,0,0,.044.405,1.345,1.345,0,0,0,.088.274,1.4,1.4,0,0,0,.142.208.847.847,0,0,0,.307.208.939.939,0,0,0,.394.077,1.2,1.2,0,0,0,.438-.088.948.948,0,0,0,.526-.592,1.6,1.6,0,0,0,.055-.416v-.263H47.757V20.63h1.764v.734A2.609,2.609,0,0,1,49.422,22.131Z" fill="#231f20"/>
        <path id="Path_546" data-name="Path 546" d="M50.485,23.2V18.428h.723v4.13h2.3V23.2Z" fill="#231f20"/>
        <path id="Path_547" data-name="Path 547" d="M56.982,23.2l-.329-.964H54.769l-.329.964h-.767l1.753-4.777h.581L57.76,23.2h-.778Zm-1.26-3.692-.745,2.125h1.468Z" fill="#231f20"/>
        <path id="Path_548" data-name="Path 548" d="M61.715,21.309a4.254,4.254,0,0,1-.044.526,1.953,1.953,0,0,1-.142.493,1.365,1.365,0,0,1-.3.427,1.447,1.447,0,0,1-.537.34,1.984,1.984,0,0,1-.69.11H58.329V18.428h1.676a1.984,1.984,0,0,1,.69.11,1.364,1.364,0,0,1,.537.34,1.459,1.459,0,0,1,.3.416,2.338,2.338,0,0,1,.142.471,2.538,2.538,0,0,1,.044.5v.515A4.21,4.21,0,0,1,61.715,21.309ZM60.97,19.94a.955.955,0,0,0-.219-.548,1.034,1.034,0,0,0-.811-.318h-.876v3.473h.876a1.072,1.072,0,0,0,.811-.318,1,1,0,0,0,.219-.581c.022-.252.033-.537.033-.866S60.992,20.17,60.97,19.94Z" fill="#231f20"/>
        <path id="Path_549" data-name="Path 549" d="M62.7,23.2V18.428h3.057v.646H63.424v1.4h1.983v.646H63.424v1.435h2.334V23.2Z" fill="#231f20"/>
        <path id="Path_550" data-name="Path 550" d="M69.5,22.427a1.273,1.273,0,0,1-.362.438,1.655,1.655,0,0,1-.537.274,2.284,2.284,0,0,1-.69.1,2.707,2.707,0,0,1-.942-.142,1.885,1.885,0,0,1-.745-.493l.482-.482a1.438,1.438,0,0,0,.559.362,2.092,2.092,0,0,0,.668.1,1.159,1.159,0,0,0,.723-.2.708.708,0,0,0,.077-1.03,1.029,1.029,0,0,0-.2-.131,1.344,1.344,0,0,0-.318-.077l-.559-.077a1.692,1.692,0,0,1-.909-.383,1.2,1.2,0,0,1-.351-.909,1.391,1.391,0,0,1,.11-.57,1.292,1.292,0,0,1,.318-.449,1.51,1.51,0,0,1,.5-.285,2.092,2.092,0,0,1,.668-.1,2.308,2.308,0,0,1,.822.131,2.139,2.139,0,0,1,.657.416l-.46.46a1.252,1.252,0,0,0-.482-.3,1.862,1.862,0,0,0-.559-.077.933.933,0,0,0-.646.208.7.7,0,0,0-.23.537.643.643,0,0,0,.044.252.507.507,0,0,0,.142.2,1.01,1.01,0,0,0,.537.219l.548.077a1.886,1.886,0,0,1,.537.142,1.517,1.517,0,0,1,.362.219.9.9,0,0,1,.285.427,1.494,1.494,0,0,1,.1.559A2.377,2.377,0,0,1,69.5,22.427Z" fill="#231f20"/>
        <path id="Path_551" data-name="Path 551" d="M73.164,23.2V21.123H71.224V23.2H70.5V18.428h.723v2.038h1.939V18.428h.723V23.2h-.723Z" fill="#231f20"/>
      </g>
      <g id="Group_569" data-name="Group 569">
        <path id="Path_552" data-name="Path 552" d="M5.434,38.368a.983.983,0,0,1-.285.351,1.13,1.13,0,0,1-.427.219,1.743,1.743,0,0,1-.548.077,2.2,2.2,0,0,1-.756-.11,1.516,1.516,0,0,1-.592-.394l.383-.383a1.192,1.192,0,0,0,.449.285,1.63,1.63,0,0,0,.537.077.965.965,0,0,0,.581-.153.54.54,0,0,0,.208-.427.479.479,0,0,0-.318-.493A.971.971,0,0,0,4.4,37.36l-.449-.066a1.258,1.258,0,0,1-.723-.307.957.957,0,0,1-.285-.734,1.172,1.172,0,0,1,.088-.449,1.072,1.072,0,0,1,.252-.362,1.122,1.122,0,0,1,.405-.23,1.587,1.587,0,0,1,.537-.077,1.977,1.977,0,0,1,.657.1,1.506,1.506,0,0,1,.526.329l-.373.362a.786.786,0,0,0-.383-.23,1.484,1.484,0,0,0-.449-.066.745.745,0,0,0-.515.164.546.546,0,0,0-.175.427.573.573,0,0,0,.033.2.478.478,0,0,0,.11.164.9.9,0,0,0,.427.175l.438.066a2.16,2.16,0,0,1,.427.11.833.833,0,0,1,.285.175.933.933,0,0,1,.23.34,1.172,1.172,0,0,1,.077.449A1.293,1.293,0,0,1,5.434,38.368Z" fill="#1888c9"/>
        <path id="Path_553" data-name="Path 553" d="M7.833,38.981l-.767-1.26-.405.46v.8H6.113V35.157h.548v2.356l1.052-1.26H8.37l-.942,1.063L8.491,38.97H7.833Z" fill="#1888c9"/>
        <path id="Path_554" data-name="Path 554" d="M8.907,35.727v-.581h.581v.581Zm.022,3.254V36.264h.548v2.717Z" fill="#1888c9"/>
        <path id="Path_555" data-name="Path 555" d="M10.945,38.981a.732.732,0,0,1-.329-.066.621.621,0,0,1-.23-.164.522.522,0,0,1-.131-.241.817.817,0,0,1-.044-.285V35.157h.548v3.035a.372.372,0,0,0,.066.241.278.278,0,0,0,.23.077H11.3v.471Z" fill="#1888c9"/>
        <path id="Path_556" data-name="Path 556" d="M12.479,38.981a.817.817,0,0,1-.34-.066.727.727,0,0,1-.23-.164.85.85,0,0,1-.131-.241.817.817,0,0,1-.044-.285V35.157h.548v3.035a.372.372,0,0,0,.066.241.278.278,0,0,0,.23.077h.241v.471Z" fill="#1888c9"/>
        <path id="Path_557" data-name="Path 557" d="M13.563,37.776a.9.9,0,0,0,.175.559.624.624,0,0,0,.515.208.964.964,0,0,0,.383-.066,1.1,1.1,0,0,0,.285-.208l.351.329a1.593,1.593,0,0,1-.208.186.788.788,0,0,1-.23.131.924.924,0,0,1-.263.077,1.349,1.349,0,0,1-.318.033,1.39,1.39,0,0,1-.482-.077.881.881,0,0,1-.383-.241,1.18,1.18,0,0,1-.263-.427,1.889,1.889,0,0,1-.1-.657,1.543,1.543,0,0,1,.318-1.03,1.063,1.063,0,0,1,.844-.362,1.2,1.2,0,0,1,.493.1.991.991,0,0,1,.362.274,1.173,1.173,0,0,1,.23.416,1.651,1.651,0,0,1,.077.526v.241H13.563Zm1.205-.581a.964.964,0,0,0-.055-.164.575.575,0,0,0-.208-.252.555.555,0,0,0-.329-.1.532.532,0,0,0-.329.1.521.521,0,0,0-.208.252c-.022.066-.044.121-.055.164s-.011.121-.022.2H14.79A.983.983,0,0,0,14.769,37.2Z" fill="#1888c9"/>
        <path id="Path_558" data-name="Path 558" d="M17.475,38.981v-.3a.828.828,0,0,1-.318.252,1.1,1.1,0,0,1-.394.066,1.024,1.024,0,0,1-.372-.066.74.74,0,0,1-.285-.175.682.682,0,0,1-.164-.23,2.164,2.164,0,0,1-.088-.285,1.564,1.564,0,0,1-.033-.318c-.011-.11-.011-.219-.011-.318s.011-.208.011-.318a1.386,1.386,0,0,1,.033-.307,2.164,2.164,0,0,1,.088-.285,1.173,1.173,0,0,1,.164-.241.74.74,0,0,1,.285-.175,1.024,1.024,0,0,1,.372-.066,1.1,1.1,0,0,1,.394.066.792.792,0,0,1,.318.241V35.157h.548v3.824h-.548Zm-.022-1.709a.725.725,0,0,0-.077-.285.387.387,0,0,0-.175-.2.591.591,0,0,0-.3-.066.538.538,0,0,0-.3.066.509.509,0,0,0-.175.2.726.726,0,0,0-.088.285,3.318,3.318,0,0,0-.022.34c0,.121.011.241.022.351a.726.726,0,0,0,.088.285.442.442,0,0,0,.175.2.589.589,0,0,0,.3.077.5.5,0,0,0,.3-.077.442.442,0,0,0,.175-.2.725.725,0,0,0,.077-.285c.011-.11.022-.23.022-.351S17.464,37.382,17.453,37.272Z" fill="#1888c9"/>
        <path id="Path_559" data-name="Path 559" d="M18.746,38.981v-.657H19.4v.657Z" fill="#1888c9"/>
        <path id="Path_560" data-name="Path 560" d="M21.342,38.981V35.157h2.443v.526H21.923V36.8h1.589v.515H21.923v1.15h1.863v.515H21.342Z" fill="#1888c9"/>
        <path id="Path_561" data-name="Path 561" d="M25.933,40.077V38.7a.725.725,0,0,1-.318.241A1.1,1.1,0,0,1,25.22,39a.983.983,0,0,1-.372-.066.833.833,0,0,1-.285-.175.715.715,0,0,1-.175-.23,2.164,2.164,0,0,1-.088-.285,3.161,3.161,0,0,1-.044-.318c0-.11-.011-.219-.011-.318s0-.208.011-.318a1.381,1.381,0,0,1,.044-.307,2.164,2.164,0,0,1,.088-.285.9.9,0,0,1,.175-.241.666.666,0,0,1,.285-.175,1.024,1.024,0,0,1,.372-.066,1.061,1.061,0,0,1,.394.066.855.855,0,0,1,.329.252v-.274h.537v3.824h-.548Zm-.022-2.8a.978.978,0,0,0-.077-.285.422.422,0,0,0-.164-.2.591.591,0,0,0-.3-.066.564.564,0,0,0-.3.066.509.509,0,0,0-.175.2.725.725,0,0,0-.077.285,3.318,3.318,0,0,0-.022.34c0,.121.011.241.022.351a.978.978,0,0,0,.077.285.442.442,0,0,0,.175.2.589.589,0,0,0,.3.077.5.5,0,0,0,.3-.077.367.367,0,0,0,.164-.2.725.725,0,0,0,.077-.285c.011-.11.011-.23.011-.351A1.762,1.762,0,0,0,25.911,37.272Z" fill="#1888c9"/>
        <path id="Path_562" data-name="Path 562" d="M28.858,38.981v-.274a.854.854,0,0,1-.329.23,1.07,1.07,0,0,1-.767.011,1.006,1.006,0,0,1-.3-.175.77.77,0,0,1-.208-.351,1.277,1.277,0,0,1-.055-.416V36.264h.548v1.654a.589.589,0,0,0,.164.46.538.538,0,0,0,.383.142.759.759,0,0,0,.219-.033.465.465,0,0,0,.186-.11.78.78,0,0,0,.121-.186.685.685,0,0,0,.044-.274V36.264h.548v2.717Z" fill="#1888c9"/>
        <path id="Path_563" data-name="Path 563" d="M30.118,35.727v-.581H30.7v.581Zm.022,3.254V36.264h.548v2.717Z" fill="#1888c9"/>
        <path id="Path_564" data-name="Path 564" d="M33.646,37.94a3.164,3.164,0,0,1-.044.318,1.252,1.252,0,0,1-.1.285.877.877,0,0,1-.164.23.74.74,0,0,1-.285.175,1.024,1.024,0,0,1-.372.066,1.1,1.1,0,0,1-.394-.066.792.792,0,0,1-.318-.241v1.38h-.548V36.264h.537v.3a.7.7,0,0,1,.329-.252,1.061,1.061,0,0,1,.394-.066,1.129,1.129,0,0,1,.383.066.833.833,0,0,1,.285.175.78.78,0,0,1,.164.241,1.251,1.251,0,0,1,.1.285,2.583,2.583,0,0,1,.044.307,3.079,3.079,0,0,1,.011.318A1.347,1.347,0,0,0,33.646,37.94Zm-.57-.668A.725.725,0,0,0,33,36.987a.5.5,0,0,0-.164-.2.7.7,0,0,0-.592,0,.483.483,0,0,0-.164.2.725.725,0,0,0-.077.285,3.318,3.318,0,0,0-.022.34,1.827,1.827,0,0,0,.022.351.725.725,0,0,0,.077.285.5.5,0,0,0,.164.2.589.589,0,0,0,.3.077.5.5,0,0,0,.3-.077.367.367,0,0,0,.164-.2.725.725,0,0,0,.077-.285c.011-.11.022-.23.022-.351A1.77,1.77,0,0,0,33.076,37.272Z" fill="#1888c9"/>
        <path id="Path_565" data-name="Path 565" d="M36.472,37.94a1.584,1.584,0,0,1-.044.318,1.252,1.252,0,0,1-.1.285.877.877,0,0,1-.164.23.833.833,0,0,1-.285.175,1.024,1.024,0,0,1-.372.066,1.1,1.1,0,0,1-.394-.066.725.725,0,0,1-.318-.241v1.38h-.548V36.264h.537v.3a.735.735,0,0,1,.318-.252,1.061,1.061,0,0,1,.394-.066,1.024,1.024,0,0,1,.373.066.665.665,0,0,1,.285.175.78.78,0,0,1,.164.241,2.175,2.175,0,0,1,.1.285,2.582,2.582,0,0,1,.044.307,3.079,3.079,0,0,1,.011.318A1.431,1.431,0,0,1,36.472,37.94Zm-.559-.668a.725.725,0,0,0-.077-.285.422.422,0,0,0-.164-.2.591.591,0,0,0-.3-.066.538.538,0,0,0-.3.066.509.509,0,0,0-.175.2.725.725,0,0,0-.077.285c-.011.11-.011.219-.011.34s0,.241.011.351a.725.725,0,0,0,.077.285.442.442,0,0,0,.175.2.589.589,0,0,0,.3.077.5.5,0,0,0,.3-.077.422.422,0,0,0,.164-.2.725.725,0,0,0,.077-.285c.011-.11.022-.23.022-.351A1.77,1.77,0,0,0,35.913,37.272Z" fill="#1888c9"/>
        <path id="Path_566" data-name="Path 566" d="M37.5,37.776a.833.833,0,0,0,.175.559.624.624,0,0,0,.515.208.908.908,0,0,0,.372-.066.942.942,0,0,0,.285-.208l.351.329c-.077.077-.142.131-.208.186a.9.9,0,0,1-.219.131.924.924,0,0,1-.263.077,1.349,1.349,0,0,1-.318.033,1.39,1.39,0,0,1-.482-.077.881.881,0,0,1-.383-.241,1.18,1.18,0,0,1-.263-.427,1.889,1.889,0,0,1-.1-.657,1.543,1.543,0,0,1,.318-1.03,1.063,1.063,0,0,1,.844-.362,1.114,1.114,0,0,1,.482.1.908.908,0,0,1,.362.274,1.01,1.01,0,0,1,.219.416,1.651,1.651,0,0,1,.077.526v.241H37.5Zm1.205-.581a.964.964,0,0,0-.055-.164.633.633,0,0,0-.2-.252.6.6,0,0,0-.657,0,.521.521,0,0,0-.208.252.714.714,0,0,0-.055.164,1.065,1.065,0,0,0-.011.2h1.227A.813.813,0,0,1,38.707,37.2Z" fill="#1888c9"/>
        <path id="Path_567" data-name="Path 567" d="M41.413,38.981v-.3a.828.828,0,0,1-.318.252A1.061,1.061,0,0,1,40.7,39a1.024,1.024,0,0,1-.373-.066.74.74,0,0,1-.285-.175.682.682,0,0,1-.164-.23,1.251,1.251,0,0,1-.1-.285,3.161,3.161,0,0,1-.044-.318c0-.11-.011-.219-.011-.318s.011-.208.011-.318a2.584,2.584,0,0,1,.044-.307,1.252,1.252,0,0,1,.1-.285.857.857,0,0,1,.164-.241.74.74,0,0,1,.285-.175,1.024,1.024,0,0,1,.373-.066,1.146,1.146,0,0,1,.394.066.725.725,0,0,1,.318.241V35.157h.548v3.824h-.548Zm-.022-1.709a.725.725,0,0,0-.077-.285.442.442,0,0,0-.175-.2.7.7,0,0,0-.592,0,.509.509,0,0,0-.175.2.725.725,0,0,0-.077.285,3.318,3.318,0,0,0-.022.34c0,.121.011.241.022.351a.978.978,0,0,0,.077.285.442.442,0,0,0,.175.2.559.559,0,0,0,.3.077.475.475,0,0,0,.3-.077.442.442,0,0,0,.175-.2.725.725,0,0,0,.077-.285c.011-.11.022-.23.022-.351S41.4,37.382,41.391,37.272Z" fill="#1888c9"/>
        <path id="Path_568" data-name="Path 568" d="M42.673,38.981v-.657h.657v.657Z" fill="#1888c9"/>
        <path id="Path_569" data-name="Path 569" d="M47.987,37.469a2.564,2.564,0,0,1-.033.416,1.769,1.769,0,0,1-.11.394,1.035,1.035,0,0,1-.23.34,1.29,1.29,0,0,1-.438.274,1.74,1.74,0,0,1-.548.088H45.292V35.157h1.337a1.74,1.74,0,0,1,.548.088,1.142,1.142,0,0,1,.438.274,1.164,1.164,0,0,1,.23.34,1.2,1.2,0,0,1,.11.373,2.429,2.429,0,0,1,.033.405v.416A2.64,2.64,0,0,1,47.987,37.469Zm-.6-1.1a.793.793,0,0,0-.175-.438.818.818,0,0,0-.646-.263h-.7v2.783h.7a.818.818,0,0,0,.646-.263.683.683,0,0,0,.175-.471,6.337,6.337,0,0,0,.033-.69A5.712,5.712,0,0,0,47.384,36.374Z" fill="#1888c9"/>
        <path id="Path_570" data-name="Path 570" d="M48.633,35.727v-.581h.581v.581Zm.022,3.254V36.264H49.2v2.717Z" fill="#1888c9"/>
        <path id="Path_571" data-name="Path 571" d="M51.942,39.419a1.023,1.023,0,0,1-.23.362,1.227,1.227,0,0,1-.362.241,1.365,1.365,0,0,1-.493.088,1.779,1.779,0,0,1-.526-.077,1.384,1.384,0,0,1-.427-.285l.351-.351a1.64,1.64,0,0,0,.252.186.761.761,0,0,0,.34.055.836.836,0,0,0,.3-.055.4.4,0,0,0,.2-.153.856.856,0,0,0,.121-.219,1.081,1.081,0,0,0,.033-.263V38.6a.752.752,0,0,1-.329.241,1.042,1.042,0,0,1-.383.066.983.983,0,0,1-.373-.066.952.952,0,0,1-.285-.175.9.9,0,0,1-.252-.482,3.587,3.587,0,0,1,0-1.249.865.865,0,0,1,.252-.471.852.852,0,0,1,.657-.241,1.042,1.042,0,0,1,.383.066.855.855,0,0,1,.329.252v-.274h.526V38.97A1.172,1.172,0,0,1,51.942,39.419Zm-.493-2.158a.724.724,0,0,0-.077-.274.483.483,0,0,0-.164-.2.7.7,0,0,0-.592,0,.412.412,0,0,0-.164.2,1,1,0,0,0-.077.274,2.894,2.894,0,0,0-.022.318,3.1,3.1,0,0,0,.022.318.724.724,0,0,0,.077.274.412.412,0,0,0,.164.2.609.609,0,0,0,.592,0,.422.422,0,0,0,.164-.2.671.671,0,0,0,.077-.274,2.894,2.894,0,0,0,.022-.318A1.5,1.5,0,0,0,51.449,37.261Z" fill="#1888c9"/>
        <path id="Path_572" data-name="Path 572" d="M52.742,35.727v-.581h.581v.581Zm.022,3.254V36.264h.548v2.717Z" fill="#1888c9"/>
        <path id="Path_573" data-name="Path 573" d="M54.856,38.981a.732.732,0,0,1-.329-.066.621.621,0,0,1-.23-.164.67.67,0,0,1-.142-.241,1.191,1.191,0,0,1-.044-.285v-1.5h-.318v-.416H54.1v-.822h.548v.822h.526v.416h-.526v1.468a.321.321,0,0,0,.066.23.278.278,0,0,0,.23.077h.219v.471h-.307Z" fill="#1888c9"/>
        <path id="Path_574" data-name="Path 574" d="M57.19,38.981v-.252a.842.842,0,0,1-.318.208,1.1,1.1,0,0,1-.416.066,1.208,1.208,0,0,1-.427-.066.685.685,0,0,1-.3-.186.83.83,0,0,1-.219-.581.768.768,0,0,1,.23-.57,1.007,1.007,0,0,1,.712-.219h.712v-.2a.459.459,0,0,0-.142-.383.642.642,0,0,0-.46-.131.935.935,0,0,0-.351.055.7.7,0,0,0-.241.208l-.362-.34a.979.979,0,0,1,.416-.307,1.6,1.6,0,0,1,.559-.077c.745,0,1.128.307,1.128.931v1.819H57.19Zm-.011-1.205h-.635a.548.548,0,0,0-.362.1.346.346,0,0,0-.131.3.363.363,0,0,0,.121.285.562.562,0,0,0,.373.1,1.983,1.983,0,0,0,.274-.022.357.357,0,0,0,.23-.131A.577.577,0,0,0,57.168,38v-.219Z" fill="#1888c9"/>
        <path id="Path_575" data-name="Path 575" d="M59.173,38.981a.817.817,0,0,1-.34-.066.621.621,0,0,1-.23-.164.646.646,0,0,1-.131-.241.817.817,0,0,1-.044-.285V35.157h.548v3.035a.372.372,0,0,0,.066.241.278.278,0,0,0,.23.077h.241v.471Z" fill="#1888c9"/>
        <path id="Path_576" data-name="Path 576" d="M62.153,38.981l-.8-1.611H60.63v1.611h-.592V35.157h1.479a1.365,1.365,0,0,1,.493.088,1.181,1.181,0,0,1,.373.23,1.113,1.113,0,0,1,.241.351,1.215,1.215,0,0,1,.088.449,1.021,1.021,0,0,1-.219.668,1.157,1.157,0,0,1-.548.351l.887,1.687h-.679Zm-.208-3.144a.662.662,0,0,0-.471-.153h-.855v1.205h.855a.716.716,0,0,0,.471-.153.663.663,0,0,0,0-.9Z" fill="#1888c9"/>
        <path id="Path_577" data-name="Path 577" d="M63.763,37.776a.9.9,0,0,0,.175.559.624.624,0,0,0,.515.208.908.908,0,0,0,.373-.066.942.942,0,0,0,.285-.208l.351.329a1.652,1.652,0,0,1-.219.186.9.9,0,0,1-.219.131,1.192,1.192,0,0,1-.263.077,1.416,1.416,0,0,1-.318.033,1.433,1.433,0,0,1-.482-.077.917.917,0,0,1-.394-.241,1.18,1.18,0,0,1-.263-.427,1.889,1.889,0,0,1-.1-.657,1.543,1.543,0,0,1,.318-1.03,1.063,1.063,0,0,1,.844-.362,1.165,1.165,0,0,1,.493.1.991.991,0,0,1,.362.274,1.173,1.173,0,0,1,.23.416,1.651,1.651,0,0,1,.077.526v.241H63.763Zm1.205-.581a.485.485,0,0,0-.055-.164.575.575,0,0,0-.208-.252.532.532,0,0,0-.329-.1.555.555,0,0,0-.329.1.521.521,0,0,0-.208.252.714.714,0,0,0-.055.164.983.983,0,0,0-.022.2H64.99A.983.983,0,0,0,64.969,37.2Z" fill="#1888c9"/>
        <path id="Path_578" data-name="Path 578" d="M67.587,38.981v-.252a1.015,1.015,0,0,1-.307.208,1.1,1.1,0,0,1-.416.066,1.167,1.167,0,0,1-.427-.066.756.756,0,0,1-.3-.186.822.822,0,0,1-.208-.581.768.768,0,0,1,.23-.57,1.014,1.014,0,0,1,.7-.219h.712v-.2a.492.492,0,0,0-.131-.383.642.642,0,0,0-.46-.131.935.935,0,0,0-.351.055.7.7,0,0,0-.241.208l-.362-.34a.979.979,0,0,1,.416-.307,1.68,1.68,0,0,1,.559-.077c.745,0,1.128.307,1.128.931v1.819h-.548Zm-.011-1.205h-.635a.548.548,0,0,0-.362.1.371.371,0,0,0-.121.3.363.363,0,0,0,.121.285.582.582,0,0,0,.373.1,2.154,2.154,0,0,0,.285-.022.417.417,0,0,0,.23-.131A.577.577,0,0,0,67.587,38v-.219Z" fill="#1888c9"/>
        <path id="Path_579" data-name="Path 579" d="M70.392,38.981v-.3a.855.855,0,0,1-.329.252,1.061,1.061,0,0,1-.394.066,1.084,1.084,0,0,1-.383-.066A.74.74,0,0,1,69,38.762a.682.682,0,0,1-.164-.23,1.251,1.251,0,0,1-.1-.285,3.161,3.161,0,0,1-.044-.318c-.011-.11-.011-.219-.011-.318s0-.208.011-.318a2.583,2.583,0,0,1,.044-.307,1.252,1.252,0,0,1,.1-.285A.857.857,0,0,1,69,36.461a.74.74,0,0,1,.285-.175,1.024,1.024,0,0,1,.373-.066,1.061,1.061,0,0,1,.394.066.82.82,0,0,1,.329.241V35.157h.548v3.824h-.537Zm-.022-1.709a.725.725,0,0,0-.077-.285.442.442,0,0,0-.175-.2.7.7,0,0,0-.592,0,.509.509,0,0,0-.175.2.978.978,0,0,0-.077.285,3.32,3.32,0,0,0-.022.34,1.827,1.827,0,0,0,.022.351.978.978,0,0,0,.077.285.442.442,0,0,0,.175.2.589.589,0,0,0,.3.077.5.5,0,0,0,.3-.077.442.442,0,0,0,.175-.2.725.725,0,0,0,.077-.285c.011-.11.022-.23.022-.351S70.381,37.382,70.37,37.272Z" fill="#1888c9"/>
        <path id="Path_580" data-name="Path 580" d="M72.528,39.518a.8.8,0,0,1-.2.34.68.68,0,0,1-.252.153.945.945,0,0,1-.307.044h-.219v-.493H71.7a.386.386,0,0,0,.252-.066.554.554,0,0,0,.142-.23l.153-.427-.942-2.6h.581l.646,1.917.635-1.917h.592Z" fill="#1888c9"/>
        <path id="Path_581" data-name="Path 581" d="M73.689,38.981v-.657h.657v.657Z" fill="#1888c9"/>
      </g>
      <g id="Group_570" data-name="Group 570">
        <path id="Path_582" data-name="Path 582" d="M33.47,14.769a4.255,4.255,0,0,1-.044.526,1.953,1.953,0,0,1-.142.493,1.365,1.365,0,0,1-.3.427,1.406,1.406,0,0,1-.548.34,1.984,1.984,0,0,1-.69.11H30.074V11.887H31.75a1.984,1.984,0,0,1,.69.11,1.49,1.49,0,0,1,.548.34,1.459,1.459,0,0,1,.3.416,1.8,1.8,0,0,1,.142.471,2.538,2.538,0,0,1,.044.5v1.041Zm-.756-1.359a.955.955,0,0,0-.219-.548,1.034,1.034,0,0,0-.811-.318h-.876v3.473h.876A1.072,1.072,0,0,0,32.5,15.7a.931.931,0,0,0,.219-.581c.022-.252.033-.537.033-.866C32.747,13.9,32.736,13.629,32.714,13.41Z" fill="#231f20"/>
        <path id="Path_583" data-name="Path 583" d="M34.445,16.664V11.887h.723v4.777Z" fill="#231f20"/>
        <path id="Path_584" data-name="Path 584" d="M39.507,15.59a1.578,1.578,0,0,1-.329.57,1.661,1.661,0,0,1-.6.416,1.914,1.914,0,0,1-.712.131,1.761,1.761,0,0,1-.69-.131,1.6,1.6,0,0,1-.559-.383,1.163,1.163,0,0,1-.263-.373,1.781,1.781,0,0,1-.142-.427,3.379,3.379,0,0,1-.055-.5V13.64a2.367,2.367,0,0,1,.055-.5,1.781,1.781,0,0,1,.142-.427,1.652,1.652,0,0,1,.263-.373,1.682,1.682,0,0,1,1.249-.515,1.877,1.877,0,0,1,.679.121,1.632,1.632,0,0,1,.515.318,1.653,1.653,0,0,1,.351.471,2,2,0,0,1,.186.581h-.734a1.041,1.041,0,0,0-.351-.614,1.012,1.012,0,0,0-.657-.219.939.939,0,0,0-.394.077.9.9,0,0,0-.449.427.9.9,0,0,0-.088.274,3.275,3.275,0,0,0-.044.405c-.011.153-.011.362-.011.6s0,.438.011.6a3.275,3.275,0,0,0,.044.405.9.9,0,0,0,.088.274.878.878,0,0,0,.142.208.847.847,0,0,0,.307.208.939.939,0,0,0,.394.077,1.2,1.2,0,0,0,.438-.088.948.948,0,0,0,.526-.592,1.6,1.6,0,0,0,.055-.416V14.67H37.853v-.614h1.742v.734A2.406,2.406,0,0,1,39.507,15.59Z" fill="#231f20"/>
        <path id="Path_585" data-name="Path 585" d="M40.57,16.664V11.887h.723v4.777Z" fill="#231f20"/>
        <path id="Path_586" data-name="Path 586" d="M44.054,12.534v4.13h-.723v-4.13H42.016v-.646h3.353v.646H44.054Z" fill="#231f20"/>
        <path id="Path_587" data-name="Path 587" d="M48.436,16.664l-.329-.953H46.223l-.329.953h-.767l1.753-4.777h.581l1.753,4.777Zm-1.249-3.692L46.442,15.1H47.91Z" fill="#231f20"/>
        <path id="Path_588" data-name="Path 588" d="M49.784,16.664V11.887h.723v4.13h2.3v.646Z" fill="#231f20"/>
      </g>
    </g>
  </g>
</svg>
