<svg xmlns="http://www.w3.org/2000/svg" xmlns:xlink="http://www.w3.org/1999/xlink" width="73.208" height="40" viewBox="0 0 73.208 40">
  <defs>
    <clipPath id="clip-path">
      <rect id="ict-division" width="73.208" height="40" transform="translate(-4383 657)" fill="#fff"/>
    </clipPath>
  </defs>
  <g id="Mask_Group_9" data-name="Mask Group 9" transform="translate(4383 -657)" clip-path="url(#clip-path)">
    <g id="ict-division-future-is-here-seeklogo-01" transform="translate(-4383 657.242)">
      <g id="Group_604" data-name="Group 604">
        <g id="Group_572" data-name="Group 572">
          <g id="Group_571" data-name="Group 571">
            <path id="Path_589" data-name="Path 589" d="M15.78,31.55A15.785,15.785,0,0,1,0,15.78,15.785,15.785,0,0,1,15.78,0,15.766,15.766,0,0,1,31.55,15.77,15.785,15.785,0,0,1,15.78,31.55Zm0-31.216A15.447,15.447,0,1,0,31.227,15.78,15.454,15.454,0,0,0,15.78.334Z" fill="#009949"/>
          </g>
        </g>
        <g id="Group_573" data-name="Group 573">
          <circle id="Ellipse_24" data-name="Ellipse 24" cx="10.474" cy="10.474" r="10.474" transform="translate(5.307 5.307)" fill="#ec1d25"/>
        </g>
        <g id="Group_579" data-name="Group 579">
          <g id="Group_574" data-name="Group 574">
            <path id="Path_590" data-name="Path 590" d="M12.077,27.513l-.4-.366a11.99,11.99,0,0,1-3.52-1.991l.237.431c.022.022.043.054.065.075a.728.728,0,0,0,.194.28c.022.022.065.054.118.1s.129.1.226.161a1.351,1.351,0,0,1,.183.14.682.682,0,0,1,.118.14.33.33,0,0,1,.043.28c-.194,0-.344-.011-.463-.022a.75.75,0,0,1-.2-.043.333.333,0,0,1-.118-.194.314.314,0,0,1,.011-.172l-.409-.1a3.382,3.382,0,0,0,.151.409.679.679,0,0,0,.161.226,1.341,1.341,0,0,0,.269.215.942.942,0,0,0,.129.075.927.927,0,0,0,.323.065,1.993,1.993,0,0,0,.269.011c.1,0,.215-.011.334-.011a.6.6,0,0,1,.334.065.737.737,0,0,1,.226.161c.075.075.118.129.118.161l-.291.646c.129.151.269.3.409.441l.614-1.507c.151.054.3.118.452.172Zm-1.529-.14a3.8,3.8,0,0,0-.248-.291,1.05,1.05,0,0,0-.226-.172,1.88,1.88,0,0,0-.4-.108h0c.065-.108.011-.248-.14-.431l.14.086a.658.658,0,0,0,.151.075l.291.161c.1.054.194.1.3.151s.194.1.3.14Z" fill="#009949"/>
          </g>
          <g id="Group_575" data-name="Group 575">
            <path id="Path_591" data-name="Path 591" d="M15.048,28.052c-.161-.086-.323-.161-.484-.258a11.386,11.386,0,0,1-1.712-.3,12.944,12.944,0,0,1-1.658-.538l.388.377a13.327,13.327,0,0,0,2.045.549l-.011.043c-.7-.032-1.432-.054-2.228-.1.14.161.28.312.42.474.161.054.312.108.463.172.075.032.151.065.215.1s.14.065.215.1c.054.032.108.054.161.086s.1.054.151.086a1.476,1.476,0,0,1,.248.183l.108.108.258.258.28.151.215-1.582c.151.022.312.032.463.054.043,0,.075.011.118.011l.118.011Zm-2.3,1.044c.1-.022.14-.075.118-.129a.391.391,0,0,0-.151-.151,1.1,1.1,0,0,0-.28-.118.867.867,0,0,0-.323-.032c-.1.011-.151.043-.161.086s.022.108.1.172a.61.61,0,0,0,.14.086c.054.022.118.043.183.065A.775.775,0,0,0,12.745,29.1Zm.71-.194a3.448,3.448,0,0,0-.463-.344c-.1-.054-.194-.118-.3-.172-.054-.032-.108-.054-.172-.086-.032-.011-.054-.032-.086-.043a.639.639,0,0,1-.086-.043h.624c.2,0,.409,0,.614.011Z" fill="#009949"/>
          </g>
          <g id="Group_576" data-name="Group 576">
            <path id="Path_592" data-name="Path 592" d="M17.8,28.514c-.075.011-.151.032-.248.054-.151.075-.226.151-.226.215s.075.108.194.129a1.219,1.219,0,0,0,.4.011,1.114,1.114,0,0,0,.484-.194q.161-.129.129-.258a.364.364,0,0,0-.065-.129,1,1,0,0,0-.538-.248,1.87,1.87,0,0,0-.42-.054H17.3a1.443,1.443,0,0,0-.215.011V28a12.3,12.3,0,0,0,1.959-.366c-.172-.032-.344-.054-.517-.086a12.045,12.045,0,0,1-2.239.3,12.248,12.248,0,0,1-2.26-.118c.151.1.312.183.463.269a12.561,12.561,0,0,0,2.11.043v.065c-.732.151-1.421.291-2.067.452a2.434,2.434,0,0,0,.28.172l.28.161a1.922,1.922,0,0,0,.248.022l.237.032c.075.011.151.032.226.043a1.27,1.27,0,0,1,.215.043,4.027,4.027,0,0,1,.452.161,1.635,1.635,0,0,1,.3.14,1.815,1.815,0,0,1,.183.172l.3.086-.129-1.259a1.17,1.17,0,0,1,.194-.011H17.5a1.664,1.664,0,0,1,.334.043c.161.032.258.086.291.151A1.082,1.082,0,0,0,17.8,28.514Zm-1.141.517a1.585,1.585,0,0,0-.237-.108.607.607,0,0,0-.129-.043.533.533,0,0,0-.14-.043c-.194-.065-.4-.108-.635-.161.118-.032.2-.054.269-.075a.837.837,0,0,1,.1-.032c.1-.022.2-.054.334-.075s.258-.065.4-.1Z" fill="#009949"/>
          </g>
          <g id="Group_577" data-name="Group 577">
            <path id="Path_593" data-name="Path 593" d="M18.525,27.546a2.094,2.094,0,0,0-.291.065c-.118.022-.248.054-.4.086l.258.054a2.2,2.2,0,0,0,.258.054.9.9,0,0,1,.108-.022,1.315,1.315,0,0,1,.28-.032.918.918,0,0,1,.248.032.149.149,0,0,1,.118.118l.312,1.119c.194.032.388.043.581.065L19.494,27.5c.161-.043.312-.108.463-.161s.3-.118.463-.172c-.183-.011-.355-.011-.527-.022l-.248.086a2.169,2.169,0,0,1-.248.075c-.032-.011-.065-.011-.086-.022-.075-.065-.118-.108-.14-.129a2.449,2.449,0,0,1-.28-.022,2.354,2.354,0,0,0,.161.441.845.845,0,0,0-.237-.054h-.14A.845.845,0,0,0,18.525,27.546Z" fill="#009949"/>
          </g>
          <g id="Group_578" data-name="Group 578">
            <path id="Path_594" data-name="Path 594" d="M23.046,25.694c-.183.043-.355.075-.527.108a11.985,11.985,0,0,1-3.132,1.5l.269.032.269.022a12.47,12.47,0,0,0,1.927-.883l.022.043c-.56.42-1.141.872-1.776,1.346a3.155,3.155,0,0,0,.312.054l.312.043c.161-.054.312-.118.463-.161l.226-.065a1.72,1.72,0,0,1,.226-.054,2.508,2.508,0,0,1,.657-.075,1.217,1.217,0,0,1,.151.011c.086.011.2.022.366.032.1-.022.2-.043.312-.065l-.85-1.356.388-.248Zm-1.109,2.271c.054-.086.065-.14.011-.172a.369.369,0,0,0-.2-.022.773.773,0,0,0-.291.1.846.846,0,0,0-.269.183c-.065.065-.086.129-.065.172s.086.065.183.065a.8.8,0,0,0,.355-.1A.679.679,0,0,0,21.938,27.965Zm.431-.6a2.78,2.78,0,0,0-.581.032,2.137,2.137,0,0,0-.344.065c-.065.011-.118.032-.183.043s-.129.032-.194.043c.323-.269.635-.538.958-.775Z" fill="#009949"/>
          </g>
        </g>
        <g id="Group_598" data-name="Group 598">
          <g id="Group_580" data-name="Group 580">
            <path id="Path_595" data-name="Path 595" d="M2.314,13.9a2.5,2.5,0,0,0-.022.258,1.266,1.266,0,0,0,.032.226,1,1,0,0,0,.172.312.393.393,0,0,0,.248.14c.118.011.226-.065.3-.226a.386.386,0,0,0,.043-.118.79.79,0,0,0-.054-.3.832.832,0,0,1-.043-.258c.011-.065.022-.1.054-.086s.1.1.194.269c.054.1.086.172.129.237s.065.108.075.14l.172-.172c.054-.054.118-.108.183-.172a3.062,3.062,0,0,0-.334-.484A.386.386,0,0,0,3.2,13.5a.315.315,0,0,0-.28.14.9.9,0,0,0-.151.409.617.617,0,0,0-.011.194.66.66,0,0,1-.108-.56.9.9,0,0,1,.043-.161.452.452,0,0,1,.1-.151.76.76,0,0,1,.3-.237.578.578,0,0,1,.323-.075l1.023.248c.129-.108.258-.2.388-.3l-2-.506.054-.2a1.135,1.135,0,0,0,.054-.2l.118-.4c-.118.1-.248.2-.377.312L2.6,12.2c-.011.065-.032.129-.043.194-.022.043-.032.075-.043.075-.086.032-.151.032-.194-.022l-.269.258c.28.065.484.1.624.118q.145.016.258.032a.7.7,0,0,0-.409.323,1.575,1.575,0,0,0-.14.3C2.357,13.617,2.336,13.746,2.314,13.9Z" fill="#009949"/>
          </g>
          <g id="Group_581" data-name="Group 581">
            <path id="Path_596" data-name="Path 596" d="M3.7,11.7a.366.366,0,0,1-.215,0,.314.314,0,0,1-.172-.194.532.532,0,0,1,0-.366.763.763,0,0,1,.3-.366.594.594,0,0,1,.248-.1.416.416,0,0,1,.226.032l.99.431c.14-.075.28-.151.42-.215l-1.819-.861c.054-.129.118-.248.183-.377l.1-.183c.032-.065.065-.129.1-.183a2.135,2.135,0,0,0-.215.118l-.215.118c-.054.108-.108.2-.161.312a1.7,1.7,0,0,1-.14.108.2.2,0,0,1-.118.011.523.523,0,0,0-.183.065c-.054.032-.1.065-.151.1a3.569,3.569,0,0,0,.56.248q.145.032.258.065a.976.976,0,0,0-.474.226c-.022.022-.065.065-.151.161a.826.826,0,0,0-.108.194q-.032.1-.065.226a1.136,1.136,0,0,0-.022.323.846.846,0,0,0,.086.28.542.542,0,0,0,.344.291.513.513,0,0,0,.431-.065.808.808,0,0,0,.2-.183.941.941,0,0,0,.161-.269.689.689,0,0,0,.054-.183.588.588,0,0,0,.011-.194c-.011-.14-.054-.237-.14-.269a.332.332,0,0,0-.108-.011.382.382,0,0,0-.291.269c-.065.2-.043.323.075.366a.686.686,0,0,0,.075.022C3.778,11.668,3.746,11.69,3.7,11.7Z" fill="#009949"/>
          </g>
          <g id="Group_582" data-name="Group 582">
            <path id="Path_597" data-name="Path 597" d="M5.791,6.781a1.624,1.624,0,0,0-.3.161,1.124,1.124,0,0,0-.258.248,1.513,1.513,0,0,0-.291.571,1.373,1.373,0,0,0,0,.592.181.181,0,0,0,.065.118.163.163,0,0,0,.172,0,.3.3,0,0,0,.161-.14,2.014,2.014,0,0,1,.14-.312c.043-.065.108-.065.194-.011a.093.093,0,0,1,.043.075c0,.118-.011.237,0,.366.065-.054.14-.108.2-.161l.2-.151c0-.183.022-.366.032-.549l.022-.28c.011-.1.022-.183.032-.28a.7.7,0,0,1,.409.032l.7.721c.1-.011.172-.032.248-.043A.864.864,0,0,0,7.761,7.7L6.383,6.286c.1-.1.194-.194.291-.28l.3-.269L6.5,5.8a1.678,1.678,0,0,0-.172.161l-.118.118-.086.032c-.043.011-.086-.011-.14-.054H5.942c-.1.032-.183.075-.28.108l.527.441.172.108A1.318,1.318,0,0,0,5.791,6.781ZM5.318,7.836a.568.568,0,0,1,.032-.258.9.9,0,0,1,.172-.28.785.785,0,0,1,.3-.2c-.022.215-.054.42-.065.624A.362.362,0,0,0,5.318,7.836Z" fill="#009949"/>
          </g>
          <g id="Group_583" data-name="Group 583">
            <path id="Path_598" data-name="Path 598" d="M7.89,7.8a.964.964,0,0,0-.28-.215.359.359,0,0,0-.161-.032.791.791,0,0,0-.226,0,.954.954,0,0,0-.366.1c-.043.032-.086.054-.129.086a1.144,1.144,0,0,0-.118.1,1.5,1.5,0,0,0-.226.226c-.022.022-.032.043-.054.054s-.032.043-.043.054a.754.754,0,0,0-.086.108c-.054.065-.108.118-.14.161-.086.086-.129.151-.151.161-.183.129-.323.151-.441.075a.133.133,0,0,1-.054-.086,1.25,1.25,0,0,0-.248.108.048.048,0,0,0,0,.054.365.365,0,0,0,.065.065,2.019,2.019,0,0,0,.161.129.616.616,0,0,0,.388.1.686.686,0,0,0,.377-.161,1.275,1.275,0,0,0,.312-.323c.161-.226.291-.377.366-.474a.731.731,0,0,1,.237-.215.536.536,0,0,1,.215-.1c.032,0,.118.011.269.032A.862.862,0,0,0,7.89,7.8Z" fill="#009949"/>
          </g>
          <g id="Group_584" data-name="Group 584">
            <path id="Path_599" data-name="Path 599" d="M8.418,5.264a.143.143,0,0,0-.086.032.962.962,0,0,0-.1.129,2.21,2.21,0,0,1-.269.355c-.075.065-.129.065-.172.022a.418.418,0,0,1-.032-.269.457.457,0,0,1,.075-.28,1.221,1.221,0,0,1,.2.022.569.569,0,0,0,.172-.022c.032-.011.075-.022.108-.032s.086-.032.129-.043a1.717,1.717,0,0,0,.291-.129c.043-.022.1-.054.14-.075s.1-.054.151-.075a1.089,1.089,0,0,0,.151.527,1.365,1.365,0,0,0,.28.291c.108.086.2.183.312.269.022.011.065,0,.14-.022s.118-.043.151-.054a.1.1,0,0,0,.043-.065,1.189,1.189,0,0,1-.452-.377,1.846,1.846,0,0,1-.1-.2A.637.637,0,0,1,9.516,4.9a1.285,1.285,0,0,1,.118-.409c-.118-.011-.215-.022-.323-.032a.87.87,0,0,0-.269-.043c-.2.194-.334.312-.4.366a2.106,2.106,0,0,1-.323.172c-.151.065-.237.086-.269.054V4.973a.522.522,0,0,1,.1-.14A14.122,14.122,0,0,1,9.8,3.854c-.161-.022-.323-.032-.484-.054L9.1,3.918l-.108.054-.108.065-.42.258c-.269.183-.549.366-.807.56a13.142,13.142,0,0,0-1.5,1.292c.161-.032.323-.065.474-.1.129-.118.258-.226.388-.344l.1-.086.1-.086.2-.161a.686.686,0,0,1-.022.075c-.043.226-.032.388.054.474a.391.391,0,0,0,.1.086.674.674,0,0,0,.517.054c.043-.022.1-.043.14-.065s.086-.054.129-.075a1.6,1.6,0,0,0,.312-.334l.032-.032c.022-.011.054-.022.075,0a.11.11,0,0,1,.065.054c.043.054.011.14-.075.258a1.276,1.276,0,0,1-.237.248.95.95,0,0,1-.441.172.906.906,0,0,1-.42-.032c-.043-.022-.14-.065-.269-.129A.717.717,0,0,1,7.1,5.877a1.5,1.5,0,0,0-.28.108c.118.129.215.237.312.323a1.114,1.114,0,0,0,.366.226,1.39,1.39,0,0,0,.441.108A1.246,1.246,0,0,0,8.4,6.6a1.167,1.167,0,0,0,.2-.086,1.872,1.872,0,0,0,.194-.118,1.044,1.044,0,0,0,.3-.355.586.586,0,0,0,.054-.4A.541.541,0,0,0,9.1,5.5a.606.606,0,0,0-.452-.226.563.563,0,0,0-.226-.011Z" fill="#009949"/>
          </g>
          <g id="Group_585" data-name="Group 585">
            <path id="Path_600" data-name="Path 600" d="M9.29,3.8a2.9,2.9,0,0,0-.517.3c.161,0,.323.011.484.022a.635.635,0,0,1,.086-.043.582.582,0,0,1,.441-.054.236.236,0,0,1,.14.129l.657,1.292c.14.032.291.075.431.108l-.883-1.884c.118-.065.248-.108.366-.161s.248-.108.366-.151c-.161-.032-.312-.065-.474-.086a3.276,3.276,0,0,0-.4.183A.333.333,0,0,0,9.9,3.434a.755.755,0,0,1-.161-.151l-.258-.011a3.848,3.848,0,0,0,.3.517.562.562,0,0,0-.226-.043A.705.705,0,0,0,9.29,3.8Z" fill="#009949"/>
          </g>
          <g id="Group_586" data-name="Group 586">
            <path id="Path_601" data-name="Path 601" d="M14.047,2.54l-.226-.108-.237-.1a12.322,12.322,0,0,0-1.862.441c-.151.054-.3.1-.452.151l-.452.172c-.151.054-.291.118-.441.183l-.215.1a2.007,2.007,0,0,0-.215.108l.237.032.237.043A12.914,12.914,0,0,1,12.2,2.928l.226-.065a1.721,1.721,0,0,1,.226-.054l.463-.1a1.544,1.544,0,0,1,.237-.043l.237-.043.237-.043A.766.766,0,0,1,14.047,2.54ZM13.52,3.563a.5.5,0,0,0-.1-.237.868.868,0,0,0-.377-.312.855.855,0,0,0-.237-.065,1.105,1.105,0,0,0-.269-.011c-.108.011-.194.032-.269.043a.92.92,0,0,0-.258.1.7.7,0,0,0-.194.161.386.386,0,0,0-.118.377.22.22,0,0,0,.054.1.4.4,0,0,0,.237.161.662.662,0,0,0,.151.011,1.317,1.317,0,0,0,.183-.032c.3-.086.431-.226.377-.42a.362.362,0,0,0-.108-.172.742.742,0,0,0,.086-.032A.424.424,0,0,1,13,3.294a.385.385,0,0,1,.161.215.329.329,0,0,1-.129.312,1.122,1.122,0,0,1-.441.28,2.4,2.4,0,0,1-.248.043.871.871,0,0,1-.237,0A1.323,1.323,0,0,1,11.636,4a2.339,2.339,0,0,1-.42-.258c-.065-.043-.183-.14-.388-.291l-.3.043c.1.1.215.194.334.3.065.054.118.108.194.161s.129.108.2.172a2.08,2.08,0,0,0,.431.248c.065.032.129.054.172.075s.1.032.129.043a.917.917,0,0,0,.344.032,1.757,1.757,0,0,0,.355-.054.881.881,0,0,0,.258-.108,1.7,1.7,0,0,0,.258-.161.865.865,0,0,0,.269-.3A.6.6,0,0,0,13.52,3.563Z" fill="#009949"/>
          </g>
          <g id="Group_587" data-name="Group 587">
            <path id="Path_602" data-name="Path 602" d="M15.253,2.917a1.087,1.087,0,0,0,.248.129l-.011-.011a.4.4,0,0,0,.161.054c.032.011.075.011.118.022a.635.635,0,0,0,.151.022,2.2,2.2,0,0,0,.237-.172c.086-.075.14-.14.14-.215a.587.587,0,0,0-.075-.226c-.054-.118-.108-.183-.161-.183v.075c.366,0,.732.032,1.1.065-.129-.1-.258-.2-.388-.3a13.624,13.624,0,0,0-3.681.226c.161.054.312.129.463.194l.258-.043.269-.032.269-.032c.043,0,.086-.011.129-.011l.129-.011c.172-.011.355-.032.527-.032l.527-.011a.173.173,0,0,1,.118.032.244.244,0,0,1,.075.151c0,.118-.065.194-.2.237a1.967,1.967,0,0,0-.409-.2.525.525,0,0,0-.118-.043.555.555,0,0,0-.118-.022,1.99,1.99,0,0,0-.248-.011c-.3.022-.474.14-.517.344a.225.225,0,0,0,.1.248.5.5,0,0,0,.344.075.43.43,0,0,0,.248-.108.276.276,0,0,0,.108-.2.1.1,0,0,0-.043-.086A.91.91,0,0,1,15.253,2.917Z" fill="#009949"/>
          </g>
          <g id="Group_588" data-name="Group 588">
            <path id="Path_603" data-name="Path 603" d="M15.8,3.122c-.011,0-.011.022,0,.054a.351.351,0,0,1,.032.108v.71q-.032-.016-.032-.032a.764.764,0,0,0-.42-.086h-.151a1.527,1.527,0,0,1-.635.011.284.284,0,0,1-.183-.248.555.555,0,0,1,.032-.248l-.172-.065a.076.076,0,0,0-.1.043.58.58,0,0,0-.065.366.6.6,0,0,0,.215.366.564.564,0,0,0,.323.129,1.127,1.127,0,0,0,.377.022.9.9,0,0,0,.108-.022q.065-.016.161-.032a1.487,1.487,0,0,1,.269-.032.482.482,0,0,1,.323.1c.054.065.086.118.118.161l.172.129.043-1.109a1.453,1.453,0,0,0-.011-.377.465.465,0,0,0-.474-.258.556.556,0,0,0-.323.065c-.108.054-.194.086-.248.118a2.407,2.407,0,0,0-.226.215.311.311,0,0,0-.075.248.4.4,0,0,0,.043.151.256.256,0,0,0,.161.129.281.281,0,0,0,.118.032.442.442,0,0,0,.118.011.559.559,0,0,0,.269-.075.224.224,0,0,0,.118-.183.169.169,0,0,0-.075-.14.294.294,0,0,0-.194-.054h-.054a.387.387,0,0,1,.075-.108.944.944,0,0,1,.183-.108.3.3,0,0,1,.118-.022h-.011A.093.093,0,0,0,15.8,3.122Z" fill="#009949"/>
          </g>
          <g id="Group_589" data-name="Group 589">
            <path id="Path_604" data-name="Path 604" d="M18.3,2.659c-.118-.108-.226-.226-.344-.334l-.248-.032L17.46,2.26,17.417,2.1a1.1,1.1,0,0,0-.183-.312,1.156,1.156,0,0,0-.3-.269c-.1-.054-.194-.108-.28-.151a.658.658,0,0,0-.129-.054L16.4,1.281c-.161-.032-.312-.065-.452-.086a1.186,1.186,0,0,0-.194-.022h-.172a2.918,2.918,0,0,0-.431.043,1.574,1.574,0,0,0-.215.054c-.065.022-.14.043-.2.065-.237.086-.344.194-.334.3s.1.2.258.248a1.916,1.916,0,0,0,.474.086c.011,0,.183,0,.527.011a2.008,2.008,0,0,1,.323.032c.075.022.108.043.108.075s-.086.086-.258.161l.517.011a.294.294,0,0,0,.043-.151c0-.248-.226-.4-.678-.431H15.64c-.108,0-.226-.011-.344-.011h-.183a1.17,1.17,0,0,0-.194.011c-.151.011-.226-.011-.226-.043s.108-.1.323-.14a2.285,2.285,0,0,1,.452-.043,3.111,3.111,0,0,1,.829.086,1.174,1.174,0,0,1,.527.28.849.849,0,0,1,.226.291l.022.1-.4-.032-.2-.011h-.2c.075.043.14.1.215.14l.215.151.323.022L16.857,4.22c.108.1.2.2.312.3l.248-2.013c.151.022.291.032.441.054Z" fill="#009949"/>
          </g>
          <g id="Group_590" data-name="Group 590">
            <path id="Path_605" data-name="Path 605" d="M22.153,4.037c-.075-.14-.151-.28-.237-.42a13.2,13.2,0,0,0-2.874-1.066c.108.118.215.237.323.366a13.585,13.585,0,0,1,1.722.6l-.022.065c-.032-.011-.075-.011-.108-.022a.4.4,0,0,0-.118-.011,1.76,1.76,0,0,0-.237-.022,2.277,2.277,0,0,1-.258-.022,2.426,2.426,0,0,0-.28,0,4.109,4.109,0,0,0-.8.086l.14.248.065.118.065.129a2.747,2.747,0,0,1,.4.2,1.168,1.168,0,0,1,.291.269,1.194,1.194,0,0,1,.183.323,1.377,1.377,0,0,1,.075.377l.1.323.883-1.873c.118.054.237.118.355.172Zm-1.582.657a1.6,1.6,0,0,0-.237-.409c-.054-.065-.108-.129-.172-.194l-.1-.1a.754.754,0,0,0-.108-.086,2.556,2.556,0,0,1,.5-.011c.075,0,.161.011.237.011.043,0,.075.011.108.011s.075.011.108.022Z" fill="#009949"/>
          </g>
          <g id="Group_591" data-name="Group 591">
            <path id="Path_606" data-name="Path 606" d="M21.894,3.606a2.047,2.047,0,0,0-.226-.118q-.145-.065-.323-.129c.086.14.172.269.258.409l.086.043a.524.524,0,0,1,.291.334.255.255,0,0,1-.022.194L21.27,5.619c.054.14.108.28.151.409l1.044-1.8c.237.129.452.28.678.42-.065-.151-.129-.291-.194-.441a4.36,4.36,0,0,0-.377-.226A.742.742,0,0,0,22.54,3.9a1.821,1.821,0,0,1,.032-.226c-.043-.075-.1-.151-.14-.226a3.881,3.881,0,0,0-.248.538A.608.608,0,0,0,21.894,3.606Z" fill="#009949"/>
          </g>
          <g id="Group_592" data-name="Group 592">
            <path id="Path_607" data-name="Path 607" d="M23.606,5.673a.335.335,0,0,0,.226-.129.448.448,0,0,0,.054-.4.686.686,0,0,0-.312-.409,1.141,1.141,0,0,0-.226-.118.918.918,0,0,0-.248-.032.431.431,0,0,0-.355.161.4.4,0,0,0-.011.4,1.379,1.379,0,0,0,.118.215,1.051,1.051,0,0,0,.194.183.642.642,0,0,0,.56.129Zm-.624,1.636.172-.2a7.148,7.148,0,0,0-.1-.71,2.568,2.568,0,0,0-.1-.409,4.8,4.8,0,0,0-.323-.764l-.291.452a1.741,1.741,0,0,1,.108.194c.032.065.065.129.1.183.054.118.108.226.151.323a.747.747,0,0,1,.054.14.607.607,0,0,1,.043.129c.032.075.043.14.065.2l.054.226A.855.855,0,0,1,22.982,7.309Zm.6-2.088a.316.316,0,0,1-.086.086.563.563,0,0,1-.226-.011.764.764,0,0,1-.237-.075A.1.1,0,0,1,23,5.07a.258.258,0,0,1,.226-.108.678.678,0,0,1,.312.086C23.627,5.1,23.638,5.156,23.584,5.221Z" fill="#009949"/>
          </g>
          <g id="Group_593" data-name="Group 593">
            <path id="Path_608" data-name="Path 608" d="M26.534,7.858a1.922,1.922,0,0,0-.022-.248l-.022-.248-.129-.172L26.3,7.1l-.075-.086-.28-.323-.075-.086-.075-.075-.151-.161-.151-.161-.075-.075-.075-.075-.312-.3-.075-.075-.086-.075-.161-.14-.161-.14-.086-.075-.086-.065-.344-.269c.054.161.108.312.161.474A13.184,13.184,0,0,1,25.77,6.911l-.237.215V6.943a.525.525,0,0,0-.151-.269.348.348,0,0,0-.183-.108.8.8,0,0,0-.2-.032V6.48a.918.918,0,0,0-.3-.506.7.7,0,0,0-.5-.183.519.519,0,0,0-.377.172.61.61,0,0,0-.086.14.52.52,0,0,0,.011.42,1.286,1.286,0,0,0,.291.42A.493.493,0,0,0,24.5,7.1c.054-.011.1-.075.129-.183a.332.332,0,0,0-.118-.366.4.4,0,0,0-.237-.129.2.2,0,0,0-.194.065.27.27,0,0,0-.043.075.2.2,0,0,1,0-.28.223.223,0,0,1,.237-.065.617.617,0,0,1,.151.043.547.547,0,0,1,.14.1.624.624,0,0,1,.194.312.883.883,0,0,1,.011.2q0,.081-.1.1l.237.151a.375.375,0,0,1,.172-.161.178.178,0,0,1,.14.054.27.27,0,0,1,.086.194c.011.086,0,.14-.043.172l-.807.71c.011.151.022.291.032.431l1.55-1.292c.086.1.161.2.248.312l.118.161A1.876,1.876,0,0,1,26.534,7.858Z" fill="#009949"/>
          </g>
          <g id="Group_594" data-name="Group 594">
            <path id="Path_609" data-name="Path 609" d="M26.491,7.374a2.793,2.793,0,0,0-.388-.463c.022.161.043.312.065.484.022.032.043.054.054.075a.56.56,0,0,1,.129.42.231.231,0,0,1-.108.161l-1.173.861c-.011.151-.022.291-.032.441l1.7-1.184c.043.054.075.108.118.161l.108.172.215.334c0-.161.011-.323.011-.484l-.118-.183-.129-.183c0-.032.011-.065.011-.086a1.06,1.06,0,0,1,.118-.183L27.04,7.46c-.172.129-.323.258-.452.377A.538.538,0,0,0,26.491,7.374Z" fill="#009949"/>
          </g>
          <g id="Group_595" data-name="Group 595">
            <path id="Path_610" data-name="Path 610" d="M27.976,10.344c.022-.151.054-.312.075-.474a15.034,15.034,0,0,0-1.13-1.927c.011.161.011.323.011.484.14.215.28.431.409.657a1.464,1.464,0,0,0-.581-.1.945.945,0,0,0-.463.151,1.045,1.045,0,0,0-.484.872.6.6,0,0,0,.022.194c.011.032.022.065.032.108a.5.5,0,0,0,.054.108.526.526,0,0,0,.248.258.314.314,0,0,0,.291.022.178.178,0,0,0,.108-.108.281.281,0,0,0,.022-.172.29.29,0,0,0-.032-.183.444.444,0,0,0-.108-.14.289.289,0,0,0-.172-.086.17.17,0,0,0-.14.043.311.311,0,0,0-.065.108c-.022.054-.032.086-.032.086s-.022-.011-.043-.043c.054.065.086.086.108.065,0-.011-.011-.022-.011-.032a.459.459,0,0,1-.022-.323.6.6,0,0,1,.14-.258.79.79,0,0,1,.14-.108,1.286,1.286,0,0,1,.431-.151.75.75,0,0,1,.452.075,1.289,1.289,0,0,1,.226.14,2.084,2.084,0,0,1,.226.215A2.942,2.942,0,0,1,27.976,10.344Z" fill="#009949"/>
          </g>
          <g id="Group_596" data-name="Group 596">
            <path id="Path_611" data-name="Path 611" d="M28.805,12.863c.054-.151.108-.312.172-.463a13.279,13.279,0,0,0-1.141-2.949c-.011.161-.032.334-.054.484a2.3,2.3,0,0,1,.108.237l-.98.452c-.043.172-.075.344-.118.517a1.32,1.32,0,0,1,.571.183,1.487,1.487,0,0,1,.474.463,2.132,2.132,0,0,0-.441.086,3.177,3.177,0,0,0-.721.4,2.64,2.64,0,0,1-.022.291c.258-.14.409-.215.431-.226l.161-.065a1.526,1.526,0,0,1,.99.108l.065-.3a2.69,2.69,0,0,0,.054-.312,4.6,4.6,0,0,0-.28-.388.468.468,0,0,0-.065-.075c-.022-.022-.043-.054-.065-.075a1.289,1.289,0,0,0-.129-.118c-.161-.129-.28-.215-.366-.28l.635-.269A14.292,14.292,0,0,1,28.805,12.863Z" fill="#009949"/>
          </g>
          <g id="Group_597" data-name="Group 597">
            <path id="Path_612" data-name="Path 612" d="M29.128,15.78c.086-.129.172-.269.258-.409l-.011-.269a.243.243,0,0,1,.065-.14c.022,0,.032-.011.043,0a.22.22,0,0,0,.1-.054c.043-.075.1-.172.161-.312l-.452.065-.431.1.065-.065a1.059,1.059,0,0,0,.366-.657.486.486,0,0,0-.032-.14c-.022-.065-.043-.118-.065-.172a1.593,1.593,0,0,0-.086-.14.689.689,0,0,0-.2-.194.522.522,0,0,0,.1-.14,1.474,1.474,0,0,1,.075-.172.837.837,0,0,0-.011-.4L29.02,12.5c-.011-.065-.032-.118-.043-.183l-.129-.366c-.043.161-.1.312-.151.463.075.312.1.42.075.312a.61.61,0,0,1,0,.28.527.527,0,0,1-.086.14.842.842,0,0,0-.248-.269.352.352,0,0,0-.28-.086.37.37,0,0,0-.194.151.44.44,0,0,0-.032.291.684.684,0,0,0,.1.226.571.571,0,0,0,.161.161.65.65,0,0,0-.108.42c.022.183.086.3.183.344a.251.251,0,0,0,.215,0,.362.362,0,0,0,.161-.172c.022-.043.054-.129.108-.269.054.011.1.086.129.215a.434.434,0,0,1-.129.323c-.108.129-.183.194-.237.2l-1.206.086c-.086.129-.161.248-.248.377l2.013-.108A5.747,5.747,0,0,1,29.128,15.78Z" fill="#009949"/>
          </g>
        </g>
        <g id="Group_599" data-name="Group 599">
          <path id="Path_613" data-name="Path 613" d="M5.274,18.794,2.282,17.234l1.4,2.992.635-3.24L1.97,19.236Z" fill="#ec1d25"/>
        </g>
        <g id="Group_600" data-name="Group 600">
          <path id="Path_614" data-name="Path 614" d="M7.115,22.433,3.8,21.755l2.185,2.487-.3-3.294L4.058,23.778Z" fill="#ec1d25"/>
        </g>
        <g id="Group_601" data-name="Group 601">
          <path id="Path_615" data-name="Path 615" d="M26.943,18.794l2.992-1.561-1.4,2.992-.635-3.24,2.347,2.25Z" fill="#ec1d25"/>
        </g>
        <g id="Group_602" data-name="Group 602">
          <path id="Path_616" data-name="Path 616" d="M25.1,22.433l3.315-.678-2.185,2.487.3-3.294,1.625,2.831Z" fill="#ec1d25"/>
        </g>
        <g id="Group_603" data-name="Group 603">
          <path id="Path_617" data-name="Path 617" d="M18.105,17.836c0-.043.011-.086.011-.129,0-.086-.011-.161-.011-.248,0-.065.032-.086.086-.043a.421.421,0,0,1,.086.108c.075.151.14.312.215.474a.8.8,0,0,0,.075.129c.022.032.043.043.075.011.108-.1.226-.194.334-.3a.278.278,0,0,0,.032-.226l-.032-.258a.276.276,0,0,1,.086-.248,1.989,1.989,0,0,0,.151-.151.49.49,0,0,0,.161-.388V16.3c0-.022.011-.054.011-.1.043.043.086.065.118.1.086.075.108.075.194,0a.642.642,0,0,1,.161-.1c.032-.022.075-.011.086.043s.043.043.075.043c.075-.022.086,0,.1.075.022.129.043.269.075.4a2.7,2.7,0,0,1,.108.646c.022.248.043.484.065.732a.342.342,0,0,0,.032.1,2.357,2.357,0,0,1,.248.646c.022.075,0,.161.022.237.043.237.1.463.14.7.011.075.022.161.032.237a.194.194,0,0,1-.032.129c-.022.022-.011.065-.011.1a4.728,4.728,0,0,1,.065.958,3.949,3.949,0,0,0,.054.71,1.336,1.336,0,0,1,.032.291.153.153,0,0,1-.022.065.067.067,0,0,1-.108.022.478.478,0,0,1-.086-.118c-.043-.1-.108-.161-.215-.14-.065.011-.1-.022-.108-.086a.237.237,0,0,1-.011-.086c-.011-.065-.032-.075-.086-.054a.548.548,0,0,0-.366.474.917.917,0,0,0,.075.56,2.362,2.362,0,0,1,.2.624v.032c0,.011,0,.011-.011.032-.022-.022-.032-.043-.043-.054-.1-.172-.194-.344-.3-.506a3.535,3.535,0,0,0-.215-.334.685.685,0,0,1-.129-.409.424.424,0,0,0-.108-.291.314.314,0,0,1-.054-.151c0-.075-.011-.1-.075-.1-.118.011-.129-.032-.129-.14s0-.226-.011-.344a.533.533,0,0,0-.043-.14.483.483,0,0,1-.011-.118.907.907,0,0,1,.086-.291c.011-.011.011-.043.011-.065-.065-.248-.14-.5-.2-.732-.032-.118-.075-.248-.118-.366a1.725,1.725,0,0,0-.441-.667,2.4,2.4,0,0,0-.258-.2.2.2,0,0,0-.194-.011c.032.043.065.065.075.1a.812.812,0,0,1,.065.14c.011.065-.022.1-.086.075a.211.211,0,0,0-.226.14c-.011.043.022.043.043.032a.382.382,0,0,0,.108-.022c-.011.075-.054.108-.118.1a.132.132,0,0,0-.151.054c-.075.1-.14.086-.226.022-.118-.086-.237-.183-.355-.269a1.314,1.314,0,0,1-.355-.377c-.054-.1-.086-.2-.14-.3a2.45,2.45,0,0,0-.226-.323c-.022-.022-.065-.022-.086-.043s-.032-.022-.032-.032a1.176,1.176,0,0,1,.054-.183.125.125,0,0,1,.075-.022c.032,0,.043-.011.043-.043a1.633,1.633,0,0,1,.032-.226.355.355,0,0,0-.022-.237c-.043-.129-.1-.248-.14-.377,0-.011-.011-.011-.022-.032a2.315,2.315,0,0,1,.022.248c.011.14.011.14-.129.172l.1.1c.108.086.108.108.054.237a1.528,1.528,0,0,0-.108.312.611.611,0,0,0,.151.4c.032.043.065.075.1.118a.2.2,0,0,1,.043.215c.129.032.172.086.129.183-.032-.011-.054-.022-.086-.032l-.011.011a.45.45,0,0,0,.043.108,3.711,3.711,0,0,0,.215.344.623.623,0,0,1,.129.549,1.061,1.061,0,0,1-.258.581,1.143,1.143,0,0,1-.118.1.614.614,0,0,0-.237.258.591.591,0,0,1-.075.1c-.043.032-.075.011-.065-.032a2.169,2.169,0,0,1,.075-.248c0-.011.011-.032.011-.043a1.228,1.228,0,0,1-.118.118c-.1.086-.2.161-.3.248-.011.011-.022.011-.043.022-.075.022-.086.022-.118-.075-.022.032-.054.054-.065.075a.235.235,0,0,1-.28.118.34.34,0,0,1-.269-.291.139.139,0,0,1,.1-.14c-.1-.032-.129-.022-.161.065-.011.043-.054.043-.065.022a1.4,1.4,0,0,1-.108-.161,1.263,1.263,0,0,1-.054-.118.082.082,0,0,0-.043-.022c-.011,0-.022.022-.022.043a.366.366,0,0,0,.011.108.253.253,0,0,0,.022.086.244.244,0,0,1-.248.323c-.043,0-.086.011-.129.011s-.054.022-.032.065c.054.075.043.086-.043.129a.654.654,0,0,0-.151.108c-.043.043-.075.043-.1-.011a1.936,1.936,0,0,1-.065-.237c-.011-.065,0-.14-.011-.2,0-.022-.022-.065-.043-.065a.112.112,0,0,0-.086.043.41.41,0,0,0-.011.161.266.266,0,0,1-.054.237c-.054.054-.1.054-.151-.011a1.518,1.518,0,0,1-.151-.194c-.011.075-.011.14-.022.2a.617.617,0,0,1-.043.151.113.113,0,0,1-.151.054v-.237a.228.228,0,0,0-.032-.075c-.022-.032-.043-.065-.086-.043a.216.216,0,0,0-.043.086v.1a.41.41,0,0,1-.108-.032.325.325,0,0,1-.1-.258.446.446,0,0,1,.022-.161c.011.043.032.075.043.118h.011v-.022a2.925,2.925,0,0,0-.065-.807.816.816,0,0,0-.065-.172.787.787,0,0,1-.086-.355.926.926,0,0,0-.011-.172.125.125,0,0,0-.022-.075.377.377,0,0,1-.065-.28,2.666,2.666,0,0,0-.032-.291c0-.032-.011-.054.022-.065.054-.022.054-.075.054-.118s0-.1-.065-.118a.118.118,0,0,1-.086-.129.831.831,0,0,1,.032-.484c.022-.043.054-.075.075-.118a.327.327,0,0,1,.075-.054c0-.011-.011-.022-.011-.032a.844.844,0,0,0-.151-.054,2.09,2.09,0,0,0-.258-.022.139.139,0,0,1-.151-.14.629.629,0,0,1,.043-.194c.022-.054.054-.108.075-.172a.11.11,0,0,0-.054-.151,1.174,1.174,0,0,1-.118-.065.19.19,0,0,1-.1-.14.184.184,0,0,0-.086-.1.116.116,0,0,1-.075-.118,1.025,1.025,0,0,1,.065-.441.17.17,0,0,1,.075-.075.527.527,0,0,0,.194-.183.236.236,0,0,0,.022-.194c-.032-.14-.032-.291-.054-.441a.855.855,0,0,0-.065-.237.321.321,0,0,0-.28-.183,1.26,1.26,0,0,1-.28-.043.33.33,0,0,1-.151-.1c-.043-.032-.075-.065-.118-.1a.179.179,0,0,0-.2-.022.081.081,0,0,1-.054.011c-.065.011-.086,0-.086-.075a1.3,1.3,0,0,1,.011-.2c0-.118-.022-.151-.118-.172-.151-.043-.194-.129-.118-.28.032-.054.075-.108.108-.161a.985.985,0,0,0,.1-.183.293.293,0,0,0,0-.1c-.011-.065,0-.075.054-.075a1.671,1.671,0,0,1,.226.043.133.133,0,0,0,.161-.043.73.73,0,0,0,.2-.452.75.75,0,0,1,.065-.2.072.072,0,0,1,.075-.032,2.467,2.467,0,0,0,.56.054h.312c.086,0,.108-.022.118-.108.011-.032.043-.065.065-.108a.378.378,0,0,0-.1-.075.48.48,0,0,1-.194-.194.793.793,0,0,1-.043-.151c-.011-.075-.043-.108-.118-.108-.129-.011-.248-.011-.377-.022a.493.493,0,0,1-.355-.312.328.328,0,0,0-.1-.14,4.392,4.392,0,0,0-.355-.269.174.174,0,0,0-.1-.032c-.226-.022-.269-.086-.237-.334a1.086,1.086,0,0,1,.075-.161.752.752,0,0,0,.086-.215.364.364,0,0,1,.161-.248.931.931,0,0,0,.3-.312.6.6,0,0,1,.151-.129.033.033,0,0,0,.022-.011c.054-.032.129-.054.118-.14a.21.21,0,0,0-.172-.151.942.942,0,0,0-.172.022h-.043V9.29l.1-.355c0-.011.011-.022.011-.032a.225.225,0,0,1,.065-.043c.011.022.043.043.043.065,0,.118.075.172.161.226a1.541,1.541,0,0,1,.226.129,1.179,1.179,0,0,1,.237.226c.065.086.054.129-.022.226a.569.569,0,0,1,.129-.011c.118-.022.129-.011.183.1a.056.056,0,0,1,.022.043c.011,0,.011-.011.022-.011.086-.1.086-.086.194-.043a.947.947,0,0,0,.161.054c.054.011.075-.022.043-.065a1.447,1.447,0,0,0-.118-.151.53.53,0,0,1-.108-.161c-.032-.065,0-.108.075-.108a.346.346,0,0,1,.334.258,1.637,1.637,0,0,0,.194.5.371.371,0,0,0,.1.086,1.144,1.144,0,0,1,.118.1.31.31,0,0,0,.269.108.422.422,0,0,1,.194.043l.065.032c.108.054.129.054.129-.075q0-.081.1-.1a.618.618,0,0,1-.043-.075.13.13,0,0,1-.022-.151.764.764,0,0,1,.108-.151c.043-.043.075-.032.086.032a.137.137,0,0,0,.011.065c.011.011.032.032.043.032a.084.084,0,0,1,.108.043,1.166,1.166,0,0,1,.086.2.8.8,0,0,0,.151.3.065.065,0,0,1,0,.108.122.122,0,0,0-.032.086v.936a2.6,2.6,0,0,1-.032.269v.118c.011.065.054.129.118.129a1.3,1.3,0,0,1,.452.14,1.8,1.8,0,0,0,.71.161c.388.011.775.011,1.173,0,.172,0,.344-.032.527-.032a1.282,1.282,0,0,1,.5.065,1.532,1.532,0,0,0,.764.043c.183-.032.366-.054.549-.086a.742.742,0,0,1,.5.14c.129.075.28.151.42.215a.2.2,0,0,1,.118.129.245.245,0,0,0,.086.1c.043.032.086.043.086.1a.126.126,0,0,1-.086.118,2.338,2.338,0,0,1-.258.075c-.118.032-.129.054-.161.172a3.126,3.126,0,0,1-.172.441,1.247,1.247,0,0,0-.14.441c-.011.086-.032.1-.118.108a1.5,1.5,0,0,0-.2.065.235.235,0,0,0-.14.215,1.319,1.319,0,0,1-.022.2c-.011.032-.043.054-.065.075-.022-.022-.054-.043-.065-.065a.19.19,0,0,0-.161-.1c-.054.011-.075.032-.054.086s.022.075-.032.086a.1.1,0,0,1-.118-.065.235.235,0,0,0-.032-.054c-.022.011-.054.022-.065.043a.174.174,0,0,0-.032.1c-.022.086-.043.108-.129.108h-.172a.809.809,0,0,0-.161,0c-.086,0-.108.022-.108.108a.458.458,0,0,1-.022.118.072.072,0,0,1-.075.054.219.219,0,0,0-.215.183c-.022.1-.032.194-.043.28a.117.117,0,0,1-.1.118c-.032.011-.065.032-.065.054s.011.065.032.086c.043.032.065.054.011.108-.022.011-.011.065,0,.1.032.1.065.194.108.291a3.274,3.274,0,0,1,.248.84.416.416,0,0,0,.086.226C18.084,17.836,18.095,17.836,18.105,17.836Zm-1.636,1.346h-.022c-.011.022-.011.054-.022.075a1.59,1.59,0,0,1-.011.226.639.639,0,0,1-.075.28,2.621,2.621,0,0,1-.527.657.266.266,0,0,1-.1.043c-.011,0-.032.011-.032.022-.011.054-.011.108-.022.161.011,0,.011.011.022.011a.625.625,0,0,1,.108-.129.753.753,0,0,1,.183-.14.126.126,0,0,0,.1-.108c0-.032.032-.054.054-.075s.032-.022.043-.043a.889.889,0,0,0,.075-.14.54.54,0,0,1,.108-.151.159.159,0,0,0,.086-.118,1.231,1.231,0,0,0,.032-.484C16.491,19.236,16.469,19.214,16.469,19.182Zm-1.6-2.68h0a2.262,2.262,0,0,0,.28.14.387.387,0,0,0,.118.022c.022,0,.043-.032.054-.043-.022-.022-.032-.054-.054-.054C15.135,16.534,15.005,16.523,14.865,16.5Zm.571.42a.424.424,0,0,0,.323-.043C15.662,16.792,15.468,16.824,15.436,16.921Zm-1.582,3.488c0,.086.043.118.086.108a.178.178,0,0,0,.086-.237C13.983,20.334,13.961,20.441,13.854,20.409Zm2.056-3.262a.2.2,0,0,0,.022-.226c-.022-.022-.043-.022-.054.011A.366.366,0,0,0,15.91,17.147Zm-1.249,2.616a.038.038,0,0,0-.022.011.376.376,0,0,0,.086.237A.038.038,0,0,0,14.747,20,1.536,1.536,0,0,1,14.661,19.763Zm-.883.054v.129C13.811,19.9,13.832,19.86,13.778,19.817Z" fill="#faed25"/>
          <path id="Path_618" data-name="Path 618" d="M17.158,20.409c.032-.075.043-.129.065-.183a1.234,1.234,0,0,0,.118-.484.76.76,0,0,1,.065-.258c.022-.054.054-.054.1-.011a.469.469,0,0,1,.065.549.786.786,0,0,1-.344.355C17.223,20.4,17.2,20.4,17.158,20.409Z" fill="#faed25"/>
          <path id="Path_619" data-name="Path 619" d="M18.514,19.419c-.022.032-.032.086-.065.1a.186.186,0,0,1-.108-.011.43.43,0,0,1-.172-.463c.022-.065.065-.086.118-.054A.761.761,0,0,1,18.514,19.419Z" fill="#faed25"/>
          <path id="Path_620" data-name="Path 620" d="M17.007,20.237a5.579,5.579,0,0,1,.183-.6C17.3,19.763,17.18,20.151,17.007,20.237Z" fill="#faed25"/>
          <path id="Path_621" data-name="Path 621" d="M16.9,19.053a.279.279,0,0,1,.269.129c.011.043,0,.065-.043.065a.351.351,0,0,1-.226-.183Z" fill="#faed25"/>
          <path id="Path_622" data-name="Path 622" d="M17.352,19.451c-.022.032-.043.075-.075.086a.63.63,0,0,1-.14.022l-.011-.043a.564.564,0,0,1,.108-.118C17.287,19.343,17.341,19.376,17.352,19.451Z" fill="#faed25"/>
          <path id="Path_623" data-name="Path 623" d="M16.566,20.517c0,.011.022.032.011.054a.276.276,0,0,1-.14.172.05.05,0,0,1-.075-.054A.279.279,0,0,1,16.566,20.517Z" fill="#faed25"/>
          <path id="Path_624" data-name="Path 624" d="M16.7,20.635c0,.011.022.022.022.032,0,.043-.043.108-.075.1a.049.049,0,0,1-.032-.032C16.6,20.7,16.642,20.646,16.7,20.635Z" fill="#faed25"/>
          <path id="Path_625" data-name="Path 625" d="M16.34,17.2a.931.931,0,0,1,.075.108c.011.011,0,.032-.011.043a.108.108,0,0,1-.032-.011.4.4,0,0,1-.054-.118C16.319,17.212,16.329,17.212,16.34,17.2Z" fill="#faed25"/>
        </g>
      </g>
      <g id="Group_605" data-name="Group 605">
        <rect id="Rectangle_175" data-name="Rectangle 175" width="4.069" height="18.084" transform="translate(37.955 1.173)" fill="#07a74d"/>
        <path id="Path_626" data-name="Path 626" d="M48.019,10.2c0-3.886,2.519-5.77,5.759-5.77a9.226,9.226,0,0,1,3.434.646V1.636A13.381,13.381,0,0,0,53.6,1.173c-5.468,0-9.86,3.315-9.86,9.257,0,4.962,3.219,8.719,9.462,8.719a13.964,13.964,0,0,0,4.015-.517V15.318a10.516,10.516,0,0,1-3.4.571C50.161,15.9,48.019,13.7,48.019,10.2Z" fill="#07a74d"/>
        <path id="Path_627" data-name="Path 627" d="M58.945,1.173V4.586H63.7V19.16h4.026V4.586h4.844V1.173Z" fill="#07a74d"/>
      </g>
      <g id="Group_606" data-name="Group 606">
        <path id="Path_628" data-name="Path 628" d="M38.084,22.142a11.9,11.9,0,0,1,1.776-.129,3.693,3.693,0,0,1,2.379.635,2.672,2.672,0,0,1,.98,2.25,3.053,3.053,0,0,1-.969,2.411,4.121,4.121,0,0,1-2.68.775A11.261,11.261,0,0,1,38.084,28V22.142ZM39.4,27.007a2.821,2.821,0,0,0,.452.022,1.825,1.825,0,0,0,1.959-2.088,1.69,1.69,0,0,0-1.83-1.895,2.3,2.3,0,0,0-.592.054v3.907Z" fill="#07a74d"/>
        <path id="Path_629" data-name="Path 629" d="M45.393,22.056v5.963H44.08V22.056Z" fill="#07a74d"/>
        <path id="Path_630" data-name="Path 630" d="M47.9,28.019l-1.862-5.963H47.47l.71,2.519c.194.71.377,1.389.517,2.131h.022c.151-.721.323-1.421.527-2.11l.743-2.551h1.4l-1.959,5.963H47.9Z" fill="#07a74d"/>
        <path id="Path_631" data-name="Path 631" d="M53.315,22.056v5.963H52V22.056Z" fill="#07a74d"/>
        <path id="Path_632" data-name="Path 632" d="M54.5,26.631a3.313,3.313,0,0,0,1.453.377c.6,0,.926-.258.926-.646s-.28-.581-.969-.84c-.969-.344-1.593-.893-1.593-1.765,0-1.023.829-1.8,2.2-1.8a3.455,3.455,0,0,1,1.485.3l-.291,1.087a2.68,2.68,0,0,0-1.216-.28c-.571,0-.84.269-.84.571,0,.377.323.549,1.076.84,1.023.388,1.507.936,1.507,1.776,0,1-.753,1.851-2.347,1.851a3.621,3.621,0,0,1-1.647-.366Z" fill="#07a74d"/>
        <path id="Path_633" data-name="Path 633" d="M60.42,22.056v5.963H59.106V22.056Z" fill="#07a74d"/>
        <path id="Path_634" data-name="Path 634" d="M66.867,24.984c0,1.959-1.152,3.143-2.853,3.143a2.754,2.754,0,0,1-2.734-3.036A2.852,2.852,0,0,1,64.1,21.97,2.74,2.74,0,0,1,66.867,24.984Zm-4.187.075c0,1.173.538,1.991,1.41,1.991s1.4-.872,1.4-2.024c0-1.066-.5-1.991-1.4-1.991S62.68,23.9,62.68,25.059Z" fill="#07a74d"/>
        <path id="Path_635" data-name="Path 635" d="M67.729,28.019V22.056h1.529l1.206,2.185a16.824,16.824,0,0,1,.947,2.045h.022a22.763,22.763,0,0,1-.108-2.487V22.056h1.206v5.963H71.152l-1.238-2.293c-.344-.635-.721-1.41-1.012-2.11l-.022.011c.032.786.054,1.625.054,2.6v1.8H67.729Z" fill="#07a74d"/>
      </g>
      <g id="Group_607" data-name="Group 607">
        <path id="Path_636" data-name="Path 636" d="M2.325,39.408h.581V37.836H4.564v-.527H2.906v-.98H4.79v-.517H2.325Z" fill="#ec1d25"/>
        <path id="Path_637" data-name="Path 637" d="M9.882,38.31a.71.71,0,0,1-.086.344A.783.783,0,0,1,9.053,39a.943.943,0,0,1-.592-.172.618.618,0,0,1-.226-.517V35.8H7.664V38.31a1.246,1.246,0,0,0,.2.7,1.384,1.384,0,0,0,1.184.506,1.63,1.63,0,0,0,.883-.226,1.094,1.094,0,0,0,.527-.98V35.8H9.892V38.31Z" fill="#ec1d25"/>
        <path id="Path_638" data-name="Path 638" d="M13.229,36.329H14.37v3.079h.581V36.329h1.13v-.517H13.229Z" fill="#ec1d25"/>
        <path id="Path_639" data-name="Path 639" d="M21.109,38.31a.71.71,0,0,1-.086.344A.783.783,0,0,1,20.28,39a.943.943,0,0,1-.592-.172.618.618,0,0,1-.226-.517V35.8h-.571V38.31a1.246,1.246,0,0,0,.2.7,1.384,1.384,0,0,0,1.184.506,1.63,1.63,0,0,0,.883-.226,1.094,1.094,0,0,0,.527-.98V35.8h-.571V38.31Z" fill="#ec1d25"/>
        <path id="Path_640" data-name="Path 640" d="M27.6,39.085a1.293,1.293,0,0,1-.086-.549,1.688,1.688,0,0,0-.086-.614.61.61,0,0,0-.3-.291l.1-.065a.871.871,0,0,0,.366-.764,1.325,1.325,0,0,0-.054-.377.985.985,0,0,0-1.066-.614H24.8v3.606h.571v-1.5h1.076a.749.749,0,0,1,.172.022c.226.043.334.226.334.538v.312a1.386,1.386,0,0,0,.108.592l.022.043h.646v-.2L27.7,39.2C27.653,39.15,27.621,39.117,27.6,39.085Zm-2.217-2.756h1a.69.69,0,0,1,.452.118.506.506,0,0,1,.161.42.837.837,0,0,1-.022.172c-.054.237-.248.355-.592.355h-1Z" fill="#ec1d25"/>
        <path id="Path_641" data-name="Path 641" d="M31.249,37.836h1.884v-.527H31.249v-.98h1.959v-.517h-2.54v3.6h2.626v-.517H31.249Z" fill="#ec1d25"/>
        <rect id="Rectangle_176" data-name="Rectangle 176" width="0.581" height="3.606" transform="translate(40.108 35.813)" fill="#ec1d25"/>
        <path id="Path_642" data-name="Path 642" d="M45.694,37.46l-.872-.237a1.2,1.2,0,0,1-.3-.108.35.35,0,0,1-.215-.344.429.429,0,0,1,.075-.258.688.688,0,0,1,.635-.269,1.492,1.492,0,0,1,.323.032.573.573,0,0,1,.474.6v.065h.549v-.065a1.134,1.134,0,0,0-.14-.581,1.253,1.253,0,0,0-1.195-.56,1.585,1.585,0,0,0-.775.172.963.963,0,0,0-.527.915.854.854,0,0,0,.732.872l.861.226c.043.011.075.022.108.032.323.1.474.258.474.463v.054a.524.524,0,0,1-.215.377,1.105,1.105,0,0,1-.6.14.933.933,0,0,1-.753-.269.664.664,0,0,1-.161-.484V38.17h-.56v.065a1.25,1.25,0,0,0,.215.753,1.432,1.432,0,0,0,1.216.527,1.7,1.7,0,0,0,1.023-.28l.065-.054a1.033,1.033,0,0,0,.334-.721V38.4a1.085,1.085,0,0,0-.032-.269A.919.919,0,0,0,45.694,37.46Z" fill="#ec1d25"/>
        <path id="Path_643" data-name="Path 643" d="M55.4,37.309H53.746v-1.5h-.571v3.6h.571V37.836H55.4v1.572h.571v-3.6H55.4Z" fill="#ec1d25"/>
        <path id="Path_644" data-name="Path 644" d="M59.655,37.836H61.55v-.527H59.655v-.98h1.97v-.517h-2.54v3.6H61.7v-.517H59.655Z" fill="#ec1d25"/>
        <path id="Path_645" data-name="Path 645" d="M67.513,39.085a1.293,1.293,0,0,1-.086-.549,1.687,1.687,0,0,0-.086-.614.61.61,0,0,0-.3-.291l.1-.065A.871.871,0,0,0,67.5,36.8a1.325,1.325,0,0,0-.054-.377.985.985,0,0,0-1.066-.614H64.715v3.606h.571v-1.5h1.076a.749.749,0,0,1,.172.022c.226.043.334.226.334.538v.312a1.386,1.386,0,0,0,.108.592l.022.043h.646v-.2L67.61,39.2C67.567,39.15,67.535,39.117,67.513,39.085ZM65.3,36.329h1a.69.69,0,0,1,.452.118.506.506,0,0,1,.161.42.837.837,0,0,1-.022.172c-.054.237-.248.355-.592.355h-1Z" fill="#ec1d25"/>
        <path id="Path_646" data-name="Path 646" d="M71.162,38.891V37.836h1.884v-.527H71.162v-.98h1.959v-.517h-2.54v3.6h2.626v-.517Z" fill="#ec1d25"/>
      </g>
    </g>
  </g>
</svg>
