<?xml version="1.0" encoding="utf-8"?>
<!-- Generator: Adobe Illustrator 20.1.0, SVG Export Plug-In . SVG Version: 6.00 Build 0)  -->
<svg version="1.1" id="Capa_1" xmlns="http://www.w3.org/2000/svg" xmlns:xlink="http://www.w3.org/1999/xlink" x="0px" y="0px"
	 viewBox="0 0 512 512" style="enable-background:new 0 0 512 512;" xml:space="preserve">
<style type="text/css">
	.st0{fill:#111517;}
</style>
<g>
	<path class="st0" d="M343.9,256c0-10.8-8.7-19.5-19.5-19.5H88.5c-10.8,0-19.5,8.7-19.5,19.5c0,10.8,8.7,19.5,19.5,19.5h235.8
		C335.1,275.5,343.9,266.8,343.9,256z"/>
	<path class="st0" d="M303.8,164l92,92l-92,92c-7.6,7.6-7.6,20,0,27.6c7.6,7.6,20,7.6,27.6,0l105.8-105.8c3.8-3.8,5.7-8.8,5.7-13.8
		s-1.9-10-5.7-13.8L331.4,136.3c-7.6-7.6-20-7.6-27.6,0C296.2,144,296.2,156.3,303.8,164z"/>
</g>
</svg>
